<svg width="211" height="187" viewBox="0 0 211 187" fill="none" xmlns="http://www.w3.org/2000/svg">
<path d="M97.0807 166.119C96.9677 166.307 96.8547 166.382 96.6664 166.382C96.5157 166.382 96.365 166.269 96.1389 166.081C95.9129 165.892 95.6115 165.666 95.2348 165.44C94.8581 165.214 94.4061 164.988 93.841 164.762C93.2759 164.573 92.5978 164.46 91.769 164.46C90.9403 164.46 90.2245 164.573 89.5841 164.8C88.9436 165.026 88.4539 165.365 88.0019 165.742C87.5875 166.156 87.2484 166.609 87.0601 167.136C86.834 167.664 86.721 168.229 86.721 168.832C86.721 169.586 86.8717 170.226 87.2107 170.754C87.5498 171.244 87.9642 171.696 88.4916 172.035C89.019 172.374 89.6217 172.676 90.2998 172.94C90.9779 173.166 91.656 173.43 92.3718 173.656C93.0875 173.882 93.7656 174.146 94.4437 174.447C95.1218 174.749 95.7246 175.088 96.252 175.502C96.7794 175.917 97.2314 176.445 97.5328 177.085C97.8718 177.726 98.0225 178.48 98.0225 179.422C98.0225 180.364 97.8718 181.268 97.5328 182.097C97.1938 182.926 96.7417 183.68 96.1013 184.283C95.4985 184.886 94.7074 185.376 93.841 185.753C92.9745 186.13 91.9197 186.28 90.7519 186.28C89.245 186.28 87.9642 186.017 86.9094 185.489C85.8169 184.961 84.8751 184.245 84.084 183.303L84.536 182.587C84.6491 182.437 84.7998 182.361 84.9881 182.361C85.1011 182.361 85.2141 182.437 85.3648 182.55C85.5155 182.663 85.7039 182.851 85.8922 183.04C86.1183 183.228 86.3443 183.416 86.6457 183.642C86.947 183.869 87.2861 184.057 87.7005 184.245C88.0772 184.434 88.5669 184.585 89.0567 184.735C89.5841 184.848 90.1491 184.924 90.7896 184.924C91.6937 184.924 92.4848 184.773 93.2006 184.509C93.9163 184.245 94.4814 183.869 94.9711 183.379C95.4609 182.926 95.8376 182.361 96.1013 181.721C96.365 181.08 96.478 180.402 96.478 179.648C96.478 178.856 96.3273 178.178 95.9883 177.688C95.6492 177.161 95.2348 176.746 94.7074 176.407C94.18 176.068 93.5773 175.766 92.8992 175.54C92.2211 175.314 91.543 175.088 90.8272 174.862C90.1115 174.636 89.4334 174.372 88.7553 174.108C88.0772 173.844 87.4744 173.467 86.947 173.053C86.4196 172.638 85.9676 172.073 85.6662 171.432C85.3272 170.792 85.1765 169.963 85.1765 169.02C85.1765 168.267 85.3272 167.551 85.5909 166.835C85.8922 166.119 86.3066 165.516 86.8717 164.988C87.4368 164.46 88.1149 164.008 88.9436 163.707C89.7724 163.368 90.6765 163.217 91.7314 163.217C92.8992 163.217 93.954 163.405 94.8958 163.782C95.8376 164.159 96.6663 164.724 97.4575 165.478L97.0807 166.119Z" fill="#333333"/>
<path d="M118.252 163.367V164.762H110.303V186.016H108.646V164.762H100.659V163.367H118.252Z" fill="#333333"/>
<path d="M124.016 175.766V186.016H122.358V163.367H128.16C130.759 163.367 132.718 163.857 133.999 164.875C135.28 165.892 135.958 167.362 135.958 169.322C135.958 170.188 135.807 170.98 135.506 171.696C135.204 172.412 134.752 173.052 134.225 173.58C133.66 174.108 132.982 174.56 132.191 174.899C131.4 175.238 130.495 175.464 129.516 175.577C129.78 175.728 130.006 175.954 130.194 176.218L137.992 186.016H136.598C136.41 186.016 136.259 185.979 136.146 185.941C136.033 185.866 135.92 185.79 135.807 185.602L128.537 176.406C128.461 176.293 128.348 176.18 128.273 176.105C128.198 176.03 128.085 175.954 127.971 175.917C127.858 175.879 127.708 175.841 127.557 175.803C127.406 175.766 127.218 175.766 126.992 175.766H124.016ZM124.016 174.522H127.934C128.951 174.522 129.817 174.409 130.646 174.145C131.437 173.919 132.115 173.58 132.643 173.128C133.208 172.676 133.622 172.148 133.886 171.507C134.187 170.867 134.3 170.151 134.3 169.397C134.3 167.776 133.773 166.608 132.718 165.817C131.663 165.025 130.119 164.649 128.122 164.649H123.978V174.522H124.016Z" fill="#333333"/>
<path d="M143.756 185.979H142.098V163.33H143.756V185.979Z" fill="#333333"/>
<path d="M151.931 163.405C152.006 163.443 152.081 163.518 152.194 163.669L166.849 183.303C166.811 183.001 166.811 182.662 166.811 182.361V163.367H168.243V186.016H167.489C167.338 186.016 167.225 185.979 167.15 185.941C167.075 185.903 166.962 185.828 166.886 185.677L152.194 166.043C152.232 166.344 152.232 166.646 152.232 166.947V186.016H150.801V163.367H151.629C151.742 163.367 151.855 163.367 151.931 163.405Z" fill="#333333"/>
<path d="M189.715 185.602C188.435 186.016 187.003 186.243 185.383 186.243C183.575 186.243 181.993 185.979 180.561 185.414C179.13 184.848 177.924 184.095 176.907 183.077C175.89 182.059 175.137 180.854 174.571 179.422C174.044 177.989 173.78 176.407 173.78 174.635C173.78 172.864 174.044 171.281 174.571 169.887C175.099 168.455 175.852 167.249 176.832 166.232C177.811 165.214 179.017 164.46 180.411 163.895C181.804 163.33 183.387 163.066 185.12 163.066C185.986 163.066 186.777 163.141 187.493 163.254C188.209 163.367 188.887 163.556 189.527 163.782C190.168 164.008 190.733 164.31 191.298 164.611C191.863 164.913 192.352 165.327 192.88 165.779L192.428 166.495C192.277 166.759 192.051 166.797 191.75 166.684C191.599 166.608 191.373 166.458 191.072 166.232C190.77 166.005 190.356 165.742 189.828 165.478C189.301 165.214 188.661 164.988 187.87 164.799C187.078 164.611 186.174 164.498 185.044 164.498C183.575 164.498 182.256 164.724 181.051 165.214C179.845 165.666 178.866 166.345 178 167.211C177.171 168.078 176.53 169.171 176.078 170.415C175.626 171.658 175.4 173.09 175.4 174.673C175.4 176.256 175.626 177.688 176.078 178.969C176.53 180.251 177.171 181.306 178.037 182.21C178.904 183.077 179.921 183.755 181.164 184.245C182.407 184.698 183.763 184.961 185.308 184.961C185.986 184.961 186.589 184.924 187.154 184.848C187.719 184.773 188.284 184.66 188.774 184.471C189.263 184.283 189.791 184.132 190.281 183.906C190.77 183.68 191.26 183.416 191.75 183.115V177.01H187.417C187.304 177.01 187.191 176.972 187.116 176.897C187.041 176.821 187.003 176.746 187.003 176.633V175.728H193.257V183.793C192.202 184.584 190.996 185.187 189.715 185.602Z" fill="#333333"/>
<path d="M210.058 166.119C209.945 166.307 209.832 166.382 209.644 166.382C209.493 166.382 209.342 166.269 209.116 166.081C208.89 165.892 208.589 165.666 208.212 165.44C207.836 165.214 207.384 164.988 206.818 164.762C206.253 164.573 205.575 164.46 204.746 164.46C203.918 164.46 203.202 164.573 202.562 164.8C201.921 165.026 201.431 165.365 200.979 165.742C200.565 166.156 200.226 166.609 200.038 167.136C199.811 167.664 199.698 168.229 199.698 168.832C199.698 169.586 199.849 170.226 200.188 170.754C200.527 171.244 200.942 171.696 201.469 172.035C201.996 172.374 202.599 172.676 203.277 172.94C203.955 173.166 204.633 173.43 205.349 173.656C206.065 173.882 206.743 174.146 207.421 174.447C208.099 174.749 208.702 175.088 209.229 175.502C209.757 175.917 210.209 176.445 210.51 177.085C210.849 177.726 211 178.48 211 179.422C211 180.364 210.849 181.268 210.51 182.097C210.171 182.926 209.719 183.68 209.079 184.283C208.476 184.886 207.685 185.376 206.818 185.753C205.914 186.092 204.897 186.28 203.729 186.28C202.222 186.28 200.942 186.017 199.887 185.489C198.794 184.961 197.853 184.245 197.061 183.303L197.514 182.587C197.627 182.437 197.777 182.361 197.966 182.361C198.079 182.361 198.192 182.437 198.342 182.55C198.493 182.663 198.681 182.851 198.87 183.04C199.096 183.228 199.322 183.416 199.623 183.642C199.925 183.869 200.264 184.057 200.678 184.245C201.092 184.434 201.544 184.585 202.034 184.735C202.562 184.848 203.127 184.924 203.767 184.924C204.671 184.924 205.462 184.773 206.178 184.509C206.894 184.245 207.459 183.869 207.949 183.379C208.438 182.926 208.815 182.361 209.079 181.721C209.342 181.08 209.455 180.402 209.455 179.648C209.455 178.856 209.305 178.178 208.966 177.688C208.627 177.198 208.212 176.746 207.685 176.407C207.157 176.068 206.555 175.766 205.877 175.54C205.199 175.314 204.52 175.088 203.805 174.862C203.089 174.636 202.411 174.372 201.733 174.108C201.055 173.844 200.452 173.467 199.925 173.053C199.397 172.638 198.945 172.073 198.644 171.432C198.305 170.792 198.154 169.963 198.154 169.02C198.154 168.267 198.305 167.551 198.568 166.835C198.87 166.119 199.284 165.516 199.849 164.988C200.414 164.46 201.092 164.008 201.921 163.707C202.75 163.368 203.654 163.217 204.709 163.217C205.877 163.217 206.931 163.405 207.873 163.782C208.815 164.159 209.644 164.724 210.435 165.478L210.058 166.119Z" fill="#333333"/>
<path d="M0.754028 185.979V162.953H8.43907C9.90826 162.953 11.1514 163.104 12.2062 163.368C13.2611 163.669 14.1275 164.046 14.7679 164.574C15.446 165.101 15.9357 165.742 16.2371 166.496C16.5385 167.249 16.7269 168.078 16.7269 169.021C16.7269 169.548 16.6515 170.076 16.4632 170.603C16.3125 171.131 16.0488 171.583 15.7097 172.035C15.3707 172.488 14.9186 172.864 14.3912 173.241C13.8638 173.58 13.2611 173.882 12.5453 174.146C14.1652 174.485 15.4083 175.088 16.1994 175.955C16.9906 176.821 17.4049 177.952 17.4049 179.346C17.4049 180.326 17.2166 181.231 16.8399 182.06C16.4632 182.889 15.9357 183.567 15.2577 184.17C14.5419 184.773 13.7131 185.225 12.6583 185.565C11.6412 185.904 10.4733 186.054 9.15483 186.054H0.754028V185.979ZM4.5212 173.091H8.25071C9.83292 173.091 11.0384 172.789 11.8295 172.148C12.6206 171.508 12.9973 170.641 12.9973 169.473C12.9973 168.191 12.6206 167.287 11.8672 166.722C11.1138 166.156 9.98361 165.893 8.40139 165.893H4.5212V173.091ZM4.5212 175.729V183.04H9.15483C9.98361 183.04 10.6994 182.927 11.3021 182.738C11.9049 182.55 12.3569 182.286 12.7336 181.947C13.1104 181.608 13.3741 181.193 13.5248 180.741C13.6754 180.289 13.7885 179.761 13.7885 179.233C13.7885 178.14 13.4117 177.274 12.6583 176.671C11.9049 176.03 10.737 175.729 9.15483 175.729H4.5212Z" fill="#32348D"/>
<path d="M36.3538 162.953V165.968H25.768V172.902H34.2442V175.841H25.768V182.964H36.3914V185.979H22.0385V162.953H36.3538Z" fill="#32348D"/>
<path d="M60.0116 185.979H57.1109C56.7719 185.979 56.5082 185.903 56.3198 185.715C56.1315 185.564 55.9808 185.338 55.8678 185.112L53.9465 180.024H44.0388L42.1176 185.112C42.0422 185.338 41.8916 185.527 41.6655 185.715C41.4395 185.903 41.1758 185.979 40.8744 185.979H37.9737L47.0903 162.953H50.8951L60.0116 185.979ZM45.0183 177.349H52.9294L49.7649 168.945C49.6519 168.643 49.5012 168.267 49.3882 167.852C49.2375 167.437 49.1245 166.985 49.0115 166.458C48.8985 166.948 48.7478 167.437 48.6348 167.852C48.4841 168.267 48.3711 168.643 48.2581 168.983L45.0183 177.349Z" fill="#32348D"/>
<path d="M76.5872 162.953V166.081H69.3919V186.017H65.7001V166.081H58.5048V162.953H76.5872Z" fill="#32348D"/>
<path d="M40.8744 93.6492C40.7237 93.1216 40.573 92.6317 40.4223 92.1418C40.3846 92.0664 40.3846 91.9911 40.347 91.9157C40.1963 91.4258 40.0456 90.8982 39.9326 90.3706C39.9326 90.3329 39.8949 90.2575 39.8949 90.2198C39.8572 90.0314 39.7819 89.843 39.7442 89.6545C31.6071 89.6545 27.5386 89.6545 27.5386 89.6545C39.1792 98.9629 45.0183 103.636 45.0183 103.636C44.9429 103.485 44.8676 103.334 44.7922 103.184C43.2477 100.131 41.9669 96.9656 40.8744 93.6492Z" fill="#7F7F7F"/>
<path d="M176.078 91.9529C176.041 92.066 176.003 92.1414 176.003 92.2544C175.815 92.8951 175.626 93.5358 175.4 94.1764C175.363 94.2895 175.325 94.4025 175.287 94.4779C174.798 95.9476 174.27 97.3797 173.667 98.8117C173.63 98.8871 173.592 98.9625 173.592 99.0379C173.366 99.6031 173.102 100.206 172.839 100.771C172.726 100.998 172.613 101.224 172.5 101.487C172.311 101.864 172.161 102.241 171.972 102.618C171.821 102.957 171.633 103.296 171.482 103.636C171.482 103.673 171.445 103.673 171.445 103.711C171.445 103.711 177.284 99.0755 188.924 89.7295C188.924 89.7295 184.856 89.7295 176.719 89.7295C176.493 90.4455 176.304 91.1992 176.078 91.9529Z" fill="#7F7F7F"/>
<path d="M74.2139 97.6815C71.3132 93.3476 69.0906 88.4485 67.8851 83.0594C62.9501 61.6162 74.666 40.2484 94.519 32.4475C94.519 32.2968 94.519 32.1837 94.519 32.033C72.707 38.7033 59.4466 61.2017 64.6453 83.8131C66.2652 90.8227 69.4673 97.0031 73.7619 102.166C73.7995 101.186 73.8749 100.206 73.9879 99.2266C74.0632 98.6613 74.1386 98.1714 74.2139 97.6815Z" fill="#32348D"/>
<path d="M35.6757 72.7712C35.6757 71.2638 36.5045 69.9448 37.71 69.2288C37.936 64.518 38.6518 59.9581 39.7819 55.5488H27.5763V89.7298C27.5763 89.7298 31.6448 89.7298 39.7819 89.7298C38.6895 85.396 37.9737 80.949 37.7477 76.3514C36.5045 75.5977 35.6757 74.2787 35.6757 72.7712Z" fill="#32348D"/>
<path d="M176.681 55.511C177.811 59.9202 178.489 64.5179 178.715 69.2286C179.921 69.9446 180.712 71.2636 180.712 72.771C180.712 74.2785 179.883 75.5975 178.678 76.3135C178.452 80.9112 177.736 85.3957 176.643 89.7296C184.78 89.7296 188.849 89.7296 188.849 89.7296V55.5487H176.681V55.511Z" fill="#32348D"/>
<path d="M146.054 98.8496L146.016 98.8119V98.7742L145.903 98.5481C145.866 98.435 145.79 98.322 145.753 98.2089C150.914 90.6341 153.664 81.7779 153.664 72.5826C153.664 55.3979 143.756 39.4569 128.386 31.8067L128.311 30.1485C128.273 29.3194 128.198 28.5657 128.122 27.7743C127.934 26.0785 127.708 24.4203 127.369 22.8375C127.18 22.0084 126.992 21.1793 126.804 20.3879C126.578 19.5965 126.352 18.7674 126.088 18.0137C125.824 17.147 125.485 16.2802 125.109 15.3757C150.349 22.8375 167.791 46.1273 167.791 72.5826C167.791 82.0794 165.643 91.124 161.386 99.5279C157.732 106.726 152.571 113.17 146.355 118.371C146.431 118.145 146.506 117.956 146.544 117.73C147.335 114.979 147.825 112.718 147.975 110.57C148.051 109.741 148.051 108.912 148.051 108.12V108.007V107.969C147.975 105.407 147.486 102.844 146.619 100.395L146.054 98.8496Z" fill="#32348D"/>
<path d="M174.722 55.511C171.445 42.7733 164.626 31.4676 155.359 22.7245C155.434 22.6491 155.547 22.5737 155.623 22.4607C157.167 20.6141 156.903 17.9007 155.095 16.3556C153.249 14.8105 150.499 15.0743 148.955 16.8832C148.879 16.9963 148.804 17.1093 148.729 17.2224C138.256 9.53448 125.523 4.7484 111.697 4.03237C111.66 1.80891 109.814 0 107.591 0C105.331 0 103.485 1.80891 103.485 4.07006C90.1114 4.97451 77.8305 9.72291 67.6591 17.1847C67.5837 17.0716 67.5084 16.9586 67.4331 16.8455C65.8885 14.9989 63.1385 14.7728 61.3302 16.3179C59.4843 17.863 59.2583 20.6141 60.8028 22.423C60.8782 22.536 60.9912 22.6114 61.0665 22.6868C51.7993 31.4299 44.9807 42.7733 41.7033 55.511C40.3094 60.9755 39.556 66.7037 39.556 72.6203C39.556 78.4993 40.3094 84.2275 41.7033 89.692C41.7409 89.8804 41.7786 90.0688 41.8539 90.2572C41.8539 90.2949 41.8916 90.3703 41.8916 90.408C42.0423 90.9356 42.1553 91.4255 42.306 91.9531C42.3437 92.0285 42.3437 92.1038 42.3814 92.1792C42.532 92.6691 42.6827 93.1967 42.8334 93.6866C43.8882 97.003 45.2067 100.206 46.7513 103.259C50.3301 110.419 55.1521 116.901 60.8782 122.365C60.8405 122.403 60.8028 122.441 60.7652 122.479C59.2206 124.325 59.4467 127.076 61.2926 128.584C63.1385 130.129 65.8508 129.903 67.3954 128.056C67.4331 128.018 67.4331 127.981 67.4707 127.943C77.6798 135.48 90.0361 140.266 103.485 141.171C103.485 141.246 103.485 141.359 103.485 141.434C103.485 143.696 105.331 145.542 107.591 145.542C109.851 145.542 111.697 143.696 111.697 141.434C111.697 141.359 111.697 141.321 111.697 141.246C125.674 140.53 138.52 135.669 149.068 127.83C150.612 129.601 153.287 129.79 155.095 128.282C156.903 126.775 157.167 124.061 155.66 122.252C161.236 116.901 165.907 110.608 169.448 103.673C169.637 103.334 169.787 102.995 169.938 102.656C170.126 102.279 170.315 101.902 170.465 101.525C170.578 101.299 170.691 101.073 170.804 100.809C171.068 100.244 171.332 99.641 171.558 99.0757C171.595 99.0003 171.633 98.925 171.633 98.8496C172.236 97.4175 172.763 95.9855 173.253 94.5157C173.291 94.4027 173.328 94.2896 173.366 94.2142C173.592 93.5736 173.78 92.9329 173.969 92.2923C174.006 92.1792 174.044 92.1038 174.044 91.9908C174.27 91.2371 174.458 90.521 174.647 89.7673C176.041 84.3029 176.794 78.5747 176.794 72.658C176.869 66.7037 176.116 60.9755 174.722 55.511ZM45.9978 72.6203C45.9978 40.6629 70.0701 14.3583 101.074 10.8158C99.6801 12.9262 98.6253 15.3004 97.8718 17.8253C96.5533 22.1592 96.0636 26.9453 95.9506 31.656C95.9506 31.7314 95.9506 31.8444 95.9506 31.9198C95.9129 34.3694 95.9506 36.7436 96.0259 39.0424C96.0636 39.7207 96.1389 40.3614 96.1766 41.0397C96.2519 41.7181 96.3273 42.3587 96.4026 43.0371C96.6663 45.0344 97.0054 46.9941 97.4198 48.9537C97.9095 51.1018 98.5122 53.2122 99.1903 55.2849C99.3787 55.8125 99.5294 56.3024 99.7177 56.83C99.9061 57.3576 100.132 57.8852 100.32 58.4128C100.622 58.0737 100.886 57.7345 101.149 57.433C101.262 57.3199 101.338 57.2069 101.451 57.0938C101.601 56.9054 101.752 56.717 101.903 56.5662C102.016 56.4155 102.166 56.3024 102.279 56.1517C102.392 56.0386 102.505 55.9256 102.581 55.8125C102.731 55.6618 102.882 55.4734 103.033 55.3226C104.163 54.079 105.105 53.1368 105.971 52.0439C105.406 50.6496 104.879 49.1798 104.427 47.6724C104.276 47.1825 104.125 46.6549 103.975 46.165C103.673 45.1475 103.447 44.13 103.221 43.1124C103.071 42.1326 102.92 41.1151 102.807 40.0976C102.618 38.5525 102.468 36.9697 102.392 35.3869C102.317 34.3317 102.317 33.2765 102.317 32.2213C102.317 32.2213 102.317 32.2213 102.317 32.1836C102.317 30.0355 102.468 27.9251 102.769 25.8524C102.845 25.3248 102.958 24.8349 103.033 24.3073C103.221 23.2898 103.485 22.3099 103.786 21.3301C104.088 20.3503 104.464 19.4081 104.879 18.5037C108.42 10.8158 116.03 8.89382 118.629 20.0488C118.968 21.5562 119.156 23.026 119.194 24.5334C119.269 26.38 119.119 28.1889 118.855 29.9978C118.817 30.3747 118.742 30.7138 118.704 31.0907C118.365 33.2388 117.838 35.3869 117.348 37.4973C117.197 38.1756 116.971 38.8163 116.745 39.4569C116.519 40.0599 116.293 40.6629 116.067 41.2282C115.578 42.3964 114.975 43.527 114.334 44.6576C114.108 45.0721 113.845 45.5243 113.581 45.9389C112.526 47.6347 111.321 49.3683 109.927 51.1018C108.91 52.3831 107.78 53.7021 106.612 55.0211C104.238 57.6214 101.865 60.0333 99.3787 62.4829C96.8924 64.9325 94.3684 67.4197 91.7313 70.2085C86.2689 75.9744 81.5976 81.7026 78.6592 87.8077C78.2825 88.5614 77.9811 89.3528 77.6421 90.1065C77.4537 90.6341 77.2654 91.124 77.077 91.6516C77.077 91.6893 77.077 91.6893 77.0394 91.727C76.8887 92.2169 76.7003 92.7068 76.5873 93.1967C76.5496 93.3475 76.512 93.4982 76.4743 93.649C76.3613 94.0258 76.2482 94.4027 76.1729 94.8172C76.0599 95.3825 75.9469 95.9478 75.8339 96.5131C75.6455 97.4929 75.5325 98.4727 75.4195 99.4526C75.2688 100.885 75.1558 102.317 75.1181 103.749C75.0051 112.567 77.8305 121.876 87.2107 130.355C87.8135 130.92 88.4539 131.448 89.0943 131.975C64.0803 123.76 45.9978 100.319 45.9978 72.6203ZM138.068 114.979C138.068 115.243 138.03 115.507 138.03 115.808C138.068 116.976 137.879 118.22 137.503 119.577C137.126 120.933 136.598 122.29 135.883 123.684C135.016 125.343 133.924 127.001 132.643 128.621C132.04 129.337 131.4 130.053 130.759 130.694C128.348 131.636 125.862 132.428 123.3 133.068C123.3 132.993 123.3 132.917 123.263 132.842C123.225 132.654 123.225 132.352 123.187 132.051C123.187 131.9 123.15 131.712 123.112 131.523C123.074 131.146 123.037 130.694 122.961 130.204C122.924 129.978 122.886 129.714 122.886 129.45C122.811 128.96 122.773 128.395 122.698 127.83C122.66 127.491 122.622 127.114 122.547 126.737C122.471 126.059 122.358 125.343 122.283 124.589C122.17 123.835 122.095 123.044 121.982 122.252C121.869 121.423 121.756 120.594 121.643 119.69C121.454 118.371 121.266 116.976 121.04 115.544C120.211 110.268 119.194 104.352 117.876 98.4727C118.29 98.4351 118.29 98.4351 118.704 98.4351C119.797 98.4351 120.814 98.4727 121.831 98.5858C122.509 98.6612 123.187 98.7742 123.828 98.8873C124.393 99.0003 124.958 99.1511 125.523 99.3018C126.201 99.4902 126.879 99.7164 127.52 99.9802C128.386 100.319 129.215 100.696 130.006 101.148C130.533 101.45 131.023 101.751 131.513 102.091C132.454 102.769 133.321 103.523 134.112 104.314C134.451 104.691 134.79 105.068 135.092 105.445C135.28 105.708 135.506 105.972 135.694 106.236C135.92 106.575 136.146 106.952 136.372 107.329C136.561 107.668 136.749 108.007 136.9 108.384C137.05 108.686 137.163 109.025 137.276 109.364C137.427 109.741 137.54 110.155 137.653 110.57C137.691 110.683 137.729 110.796 137.729 110.909C137.992 111.927 138.143 113.019 138.143 114.112C138.068 114.376 138.068 114.678 138.068 114.979ZM139.311 126.549C141.533 123.383 143.04 120.029 143.944 116.939C144.585 114.791 145.112 112.567 145.301 110.306C145.376 109.552 145.376 108.799 145.376 108.045C145.376 108.083 145.376 108.12 145.376 108.158C145.376 108.12 145.376 108.083 145.376 108.045V108.007V108.045C145.301 105.595 144.811 103.221 144.02 100.998C143.869 100.621 143.718 100.244 143.568 99.8671C143.417 99.5279 143.266 99.1511 143.116 98.8119C142.852 98.2466 142.551 97.719 142.211 97.1914C142.211 97.1914 142.211 97.1914 142.211 97.1537C141.232 95.5709 140.064 94.0635 138.67 92.7822C138.633 92.7445 138.557 92.6691 138.482 92.6314C136.674 90.9356 134.564 89.5412 132.191 88.4483C130.345 87.6192 128.348 86.9786 126.201 86.564C124.807 86.3002 123.376 86.1872 121.869 86.1495C121.266 86.1495 120.701 86.1495 120.136 86.1872C118.441 86.2626 116.896 86.4887 115.201 86.9032C114.937 85.848 114.711 84.7928 114.447 83.813C113.958 81.8157 113.543 80.0067 113.167 78.3862C112.526 75.5975 112.074 73.4871 111.848 72.5073C111.773 72.2058 111.735 72.0174 111.735 71.942C111.735 71.9043 111.735 71.8666 111.735 71.8666C111.547 72.0174 111.358 72.1681 111.132 72.3189C109.889 73.3364 108.194 74.9945 106.838 76.3889C106.612 76.615 106.386 76.8411 106.197 77.0673C107.026 79.856 107.817 82.9085 108.608 85.8857C108.872 86.8655 109.136 87.8454 109.399 88.7875C106.461 90.1065 103.824 91.84 101.601 93.8751C100.848 94.5534 100.17 95.2694 99.5294 95.9855L99.454 96.0609C98.7006 96.8899 98.0225 97.7567 97.3821 98.6612C96.9677 99.2641 96.591 99.9048 96.2143 100.508C95.3102 102.091 94.6321 103.824 94.18 105.633C93.6526 107.819 93.4642 110.118 93.7279 112.605C93.7656 112.982 93.8033 113.396 93.8786 113.773C93.9916 114.489 94.1423 115.168 94.3684 115.846C94.7451 117.165 95.2725 118.446 95.9506 119.614C96.365 120.33 96.817 121.009 97.3444 121.649C97.6081 121.989 97.9095 122.328 98.2109 122.667C99.115 123.647 100.17 124.551 101.375 125.343C100.735 124.589 100.17 123.798 99.6801 122.968C99.002 121.838 98.4746 120.632 98.0979 119.388C97.9472 118.823 97.7965 118.258 97.6835 117.692C97.6458 117.391 97.6081 117.052 97.5705 116.75C97.5328 116.185 97.4951 115.657 97.4951 115.092C97.4951 115.017 97.4951 114.941 97.4951 114.904C97.7211 109.515 101.112 104.842 106.31 101.827C108.043 100.809 109.964 100.018 112.036 99.4149C113.468 105.218 114.636 111.06 115.691 116.826C115.691 116.901 115.728 116.976 115.728 117.052C115.728 117.127 115.766 117.24 115.766 117.316C116.293 120.293 116.821 123.232 117.273 126.172C117.687 128.81 118.102 131.448 118.478 134.048C115.125 134.613 111.697 134.915 108.194 134.915C104.163 134.915 100.245 134.5 96.4026 133.784C96.2143 133.671 96.0259 133.596 95.8752 133.483C95.0465 132.993 94.2177 132.503 93.4266 131.938C90.2998 129.79 87.6251 127.114 85.5532 124.174C82.2381 119.464 80.4675 113.999 80.6558 108.761C80.6558 108.723 80.6558 108.686 80.6558 108.648C80.6935 108.196 80.7312 107.743 80.7689 107.291C80.7689 107.254 80.7689 107.178 80.7689 107.14C80.7689 107.065 80.8065 106.952 80.8065 106.877C80.8442 106.537 80.8819 106.236 80.9572 105.897C80.9572 105.821 80.9949 105.708 80.9949 105.633C80.9949 105.558 81.0326 105.52 81.0326 105.445C81.1079 105.068 81.1832 104.729 81.2586 104.352C81.2963 104.239 81.2963 104.126 81.3339 104.05C81.4469 103.598 81.56 103.146 81.7107 102.694C81.7483 102.505 81.8237 102.317 81.8613 102.166C81.9367 101.902 82.0497 101.601 82.125 101.337C82.1627 101.224 82.2004 101.111 82.2381 100.998C82.2757 100.885 82.3134 100.809 82.3511 100.696C82.4264 100.432 82.5394 100.169 82.6524 99.9048C82.7278 99.6787 82.8031 99.4902 82.9162 99.2641C83.0668 98.8496 83.2552 98.4351 83.4436 98.0582C83.4812 97.9828 83.4812 97.9451 83.5189 97.8698C83.5942 97.6813 83.7073 97.4552 83.8203 97.2668C83.8956 97.0784 84.0086 96.8899 84.084 96.7015C84.2347 96.4377 84.3477 96.1362 84.4984 95.8724C84.5737 95.7217 84.6491 95.5709 84.7621 95.4202C84.8751 95.1941 84.9881 95.0056 85.1011 94.7795C85.5532 93.9881 86.0429 93.1967 86.5703 92.443C86.608 92.3676 86.6833 92.2923 86.721 92.2169C86.947 91.9154 87.1354 91.6139 87.3614 91.2748C87.4368 91.1994 87.5121 91.0863 87.5498 91.011C87.7005 90.8225 87.8512 90.5964 88.0018 90.408C88.0772 90.2949 88.1525 90.1819 88.2655 90.1065C88.906 89.2774 89.5841 88.4483 90.2621 87.6946C91.0532 86.8279 91.882 85.9611 92.7108 85.1697C95.0088 83.0593 97.4198 81.0996 99.8308 79.14C101.451 77.8587 103.071 76.5773 104.653 75.2206C105.444 74.5423 106.235 73.9016 106.988 73.1856C108.533 71.7913 110.04 70.3592 111.471 68.8141C113.167 66.9298 114.598 65.1963 115.804 63.5758C116.632 62.4829 117.348 61.4277 117.989 60.4479C118.629 59.4303 119.194 58.4882 119.721 57.5461C121.002 55.2095 121.869 53.0615 122.584 50.9511C122.848 50.122 123.112 49.2929 123.376 48.4638C123.602 47.6347 123.828 46.8056 124.054 45.9766C124.43 44.5068 124.769 43.0371 124.995 41.605C125.41 39.1178 125.636 36.4044 125.636 33.6156C125.636 33.3518 125.636 33.088 125.636 32.8242C125.636 32.5981 125.636 32.3343 125.598 32.1082V32.0705C125.561 30.7515 125.485 29.4702 125.372 28.1512C125.222 26.5684 124.958 25.0233 124.656 23.4782C124.506 22.7245 124.317 21.9331 124.129 21.1794C123.941 20.4256 123.715 19.6719 123.451 18.9559C123.037 17.6746 122.547 16.3933 121.906 15.112C121.643 14.5844 121.379 14.0945 121.115 13.6045C120.739 12.9262 120.324 12.2479 119.91 11.6072C148.653 17.1093 170.39 42.3587 170.39 72.7334C170.465 95.6463 157.921 115.77 139.311 126.549Z" fill="#333333"/>
</svg>
