<svg viewBox="0 0 692 112" fill="none" xmlns="http://www.w3.org/2000/svg">
<path d="M91.2356 76.0684L91.2066 76.0394V76.0104L91.1196 75.8364C91.0906 75.7494 91.0326 75.6624 91.0036 75.5754C94.9767 69.7463 97.0937 62.9312 97.0937 55.8551C97.0937 42.6308 89.4666 30.3636 77.6344 24.4765L77.5764 23.2005C77.5474 22.5625 77.4894 21.9825 77.4314 21.3734C77.2864 20.0684 77.1124 18.7924 76.8514 17.5744C76.7064 16.9364 76.5614 16.2984 76.4164 15.6893C76.2424 15.0803 76.0684 14.4423 75.8654 13.8623C75.6624 13.1953 75.4014 12.5283 75.1114 11.8323C94.5417 17.5744 107.969 35.4967 107.969 55.8551C107.969 63.1632 106.316 70.1233 103.039 76.5904C100.226 82.1295 96.2527 87.0886 91.4676 91.0907C91.5256 90.9167 91.5837 90.7717 91.6127 90.5977C92.2217 88.4806 92.5987 86.7406 92.7147 85.0876C92.7727 84.4496 92.7727 83.8116 92.7727 83.2026V83.1155V83.0865C92.7147 81.1145 92.3377 79.1425 91.6706 77.2574L91.2356 76.0684Z" fill="white"/>
<path d="M113.305 42.7178C110.782 32.9156 105.533 24.2154 98.3988 17.4873C98.4568 17.4293 98.5438 17.3713 98.6018 17.2843C99.7908 15.8633 99.5878 13.7752 98.1958 12.5862C96.7748 11.3972 94.6577 11.6002 93.4687 12.9922C93.4107 13.0792 93.3527 13.1662 93.2947 13.2532C85.2326 7.33713 75.4304 3.65407 64.7872 3.10306C64.7582 1.39203 63.3372 0 61.6262 0C59.8861 0 58.4651 1.39202 58.4651 3.13206C48.1699 3.82807 38.7157 7.48213 30.8856 13.2242C30.8276 13.1372 30.7696 13.0502 30.7116 12.9632C29.5226 11.5422 27.4055 11.3682 26.0135 12.5572C24.5925 13.7462 24.4185 15.8633 25.6075 17.2553C25.6655 17.3423 25.7525 17.4003 25.8105 17.4583C18.6764 24.1864 13.4273 32.9156 10.9042 42.7178C9.83123 46.9228 9.25122 51.3309 9.25122 55.884C9.25122 60.4081 9.83123 64.8162 10.9042 69.0212C10.9332 69.1662 10.9622 69.3112 11.0202 69.4562C11.0202 69.4852 11.0493 69.5432 11.0493 69.5722C11.1653 69.9783 11.2523 70.3553 11.3683 70.7613C11.3973 70.8193 11.3973 70.8773 11.4263 70.9353C11.5423 71.3123 11.6583 71.7183 11.7743 72.0953C12.5863 74.6473 13.6013 77.1124 14.7903 79.4614C17.5454 84.9715 21.2574 89.9596 25.6655 94.1647C25.6365 94.1937 25.6075 94.2227 25.5785 94.2517C24.3895 95.6727 24.5635 97.7897 25.9845 98.9498C27.4055 100.139 29.4936 99.9648 30.6826 98.5438C30.7116 98.5148 30.7116 98.4858 30.7406 98.4568C38.5997 104.257 48.1119 107.94 58.4651 108.636C58.4651 108.694 58.4651 108.781 58.4651 108.839C58.4651 110.579 59.8861 112 61.6262 112C63.3662 112 64.7872 110.579 64.7872 108.839C64.7872 108.781 64.7872 108.752 64.7872 108.694C75.5464 108.143 85.4356 104.402 93.5557 98.3698C94.7447 99.7328 96.8038 99.8778 98.1958 98.7178C99.5878 97.5577 99.7908 95.4697 98.6308 94.0777C102.923 89.9596 106.519 85.1165 109.245 79.7804C109.39 79.5194 109.506 79.2584 109.622 78.9974C109.767 78.7074 109.912 78.4174 110.028 78.1274C110.115 77.9534 110.202 77.7794 110.289 77.5764C110.492 77.1414 110.695 76.6774 110.869 76.2424C110.898 76.1844 110.927 76.1264 110.927 76.0684C111.391 74.9663 111.797 73.8643 112.174 72.7333C112.203 72.6463 112.232 72.5593 112.261 72.5013C112.435 72.0083 112.58 71.5153 112.725 71.0223C112.754 70.9353 112.783 70.8773 112.783 70.7903C112.957 70.2103 113.102 69.6592 113.247 69.0792C114.32 64.8742 114.9 60.4661 114.9 55.913C114.958 51.3309 114.378 46.9228 113.305 42.7178ZM14.2103 55.884C14.2103 31.2916 32.7416 11.0492 56.6091 8.32315C55.536 9.94718 54.724 11.7742 54.144 13.7172C53.129 17.0523 52.752 20.7354 52.665 24.3604C52.665 24.4184 52.665 24.5054 52.665 24.5634C52.636 26.4485 52.665 28.2755 52.723 30.0445C52.752 30.5665 52.81 31.0596 52.839 31.5816C52.897 32.1036 52.955 32.5966 53.013 33.1186C53.216 34.6556 53.477 36.1636 53.796 37.6717C54.173 39.3247 54.637 40.9487 55.159 42.5438C55.304 42.9498 55.42 43.3268 55.565 43.7328C55.71 44.1388 55.884 44.5448 56.0291 44.9508C56.2611 44.6898 56.4641 44.4288 56.6671 44.1968C56.7541 44.1098 56.8121 44.0228 56.8991 43.9358C57.0151 43.7908 57.1311 43.6458 57.2471 43.5298C57.3341 43.4138 57.4501 43.3268 57.5371 43.2108C57.6241 43.1238 57.7111 43.0368 57.7691 42.9498C57.8851 42.8338 58.0011 42.6888 58.1171 42.5728C58.9871 41.6157 59.7121 40.8907 60.3791 40.0497C59.9441 38.9767 59.5381 37.8457 59.1901 36.6857C59.0741 36.3086 58.9581 35.9026 58.8421 35.5256C58.6101 34.7426 58.4361 33.9596 58.2621 33.1766C58.1461 32.4226 58.0301 31.6396 57.9431 30.8565C57.7981 29.6675 57.6821 28.4495 57.6241 27.2315C57.5661 26.4195 57.5661 25.6075 57.5661 24.7954C57.5661 24.7954 57.5661 24.7954 57.5661 24.7664C57.5661 23.1134 57.6821 21.4894 57.9141 19.8944C57.9721 19.4883 58.0591 19.1113 58.1171 18.7053C58.2621 17.9223 58.4651 17.1683 58.6971 16.4143C58.9291 15.6603 59.2191 14.9353 59.5381 14.2393C62.2642 8.32315 68.1223 6.84412 70.1233 15.4283C70.3843 16.5883 70.5293 17.7193 70.5583 18.8793C70.6163 20.3004 70.5003 21.6924 70.2973 23.0844C70.2683 23.3744 70.2103 23.6354 70.1813 23.9254C69.9203 25.5785 69.5143 27.2315 69.1373 28.8555C69.0213 29.3775 68.8473 29.8705 68.6733 30.3635C68.4993 30.8275 68.3253 31.2916 68.1513 31.7266C67.7743 32.6256 67.3103 33.4956 66.8172 34.3656C66.6432 34.6846 66.4402 35.0326 66.2372 35.3516C65.4252 36.6567 64.4972 37.9907 63.4242 39.3247C62.6412 40.3107 61.7712 41.3257 60.8721 42.3408C59.0451 44.3418 57.2181 46.1978 55.304 48.0829C53.39 49.9679 51.447 51.8819 49.4169 54.028C45.2119 58.465 41.6158 62.8731 39.3538 67.5712C39.0637 68.1512 38.8317 68.7602 38.5707 69.3402C38.4257 69.7462 38.2807 70.1233 38.1357 70.5293C38.1357 70.5583 38.1357 70.5583 38.1067 70.5873C37.9907 70.9643 37.8457 71.3413 37.7587 71.7183C37.7297 71.8343 37.7007 71.9503 37.6717 72.0663C37.5847 72.3563 37.4977 72.6463 37.4397 72.9653C37.3527 73.4003 37.2657 73.8353 37.1787 74.2703C37.0337 75.0243 36.9467 75.7784 36.8597 76.5324C36.7437 77.6344 36.6567 78.7364 36.6277 79.8384C36.5407 86.6246 38.7157 93.7877 45.9369 100.313C46.4009 100.748 46.8939 101.154 47.3869 101.56C28.1306 95.2377 14.2103 77.1994 14.2103 55.884ZM85.0876 88.4806C85.0876 88.6836 85.0586 88.8866 85.0586 89.1186C85.0876 90.0176 84.9426 90.9746 84.6526 92.0186C84.3626 93.0627 83.9565 94.1067 83.4055 95.1797C82.7385 96.4557 81.8975 97.7317 80.9115 98.9788C80.4475 99.5298 79.9545 100.081 79.4615 100.574C77.6054 101.299 75.6914 101.908 73.7194 102.401C73.7194 102.343 73.7194 102.285 73.6904 102.227C73.6614 102.082 73.6614 101.85 73.6324 101.618C73.6324 101.502 73.6034 101.357 73.5744 101.212C73.5454 100.922 73.5164 100.574 73.4584 100.197C73.4294 100.023 73.4004 99.8198 73.4004 99.6168C73.3424 99.2398 73.3134 98.8048 73.2554 98.3698C73.2264 98.1088 73.1974 97.8188 73.1394 97.5287C73.0814 97.0067 72.9944 96.4557 72.9364 95.8757C72.8494 95.2957 72.7914 94.6867 72.7043 94.0777C72.6173 93.4397 72.5303 92.8017 72.4433 92.1056C72.2983 91.0906 72.1533 90.0176 71.9793 88.9156C71.3413 84.8555 70.5583 80.3024 69.5433 75.7784C69.8623 75.7494 69.8623 75.7494 70.1813 75.7494C71.0223 75.7494 71.8053 75.7784 72.5883 75.8654C73.1104 75.9234 73.6324 76.0104 74.1254 76.0974C74.5604 76.1844 74.9954 76.3004 75.4304 76.4164C75.9524 76.5614 76.4744 76.7354 76.9674 76.9384C77.6344 77.1994 78.2725 77.4894 78.8815 77.8374C79.2875 78.0694 79.6645 78.3014 80.0415 78.5624C80.7665 79.0844 81.4335 79.6644 82.0425 80.2734C82.3035 80.5634 82.5645 80.8534 82.7965 81.1435C82.9415 81.3465 83.1155 81.5495 83.2605 81.7525C83.4345 82.0135 83.6085 82.3035 83.7826 82.5935C83.9276 82.8545 84.0726 83.1155 84.1886 83.4055C84.3046 83.6375 84.3916 83.8985 84.4786 84.1595C84.5946 84.4495 84.6816 84.7685 84.7686 85.0875C84.7976 85.1745 84.8266 85.2615 84.8266 85.3485C85.0296 86.1315 85.1456 86.9726 85.1456 87.8136C85.0876 88.0166 85.0876 88.2486 85.0876 88.4806ZM86.0446 97.3837C87.7556 94.9477 88.9156 92.3667 89.6117 89.9886C90.1047 88.3356 90.5107 86.6245 90.6557 84.8845C90.7137 84.3045 90.7137 83.7245 90.7137 83.1445C90.7137 83.1735 90.7137 83.2025 90.7137 83.2315C90.7137 83.2025 90.7137 83.1735 90.7137 83.1445V83.1155V83.1445C90.6557 81.2595 90.2787 79.4324 89.6697 77.7214C89.5537 77.4314 89.4377 77.1414 89.3217 76.8514C89.2056 76.5904 89.0896 76.3004 88.9736 76.0394C88.7706 75.6044 88.5386 75.1983 88.2776 74.7923C88.2776 74.7923 88.2776 74.7923 88.2776 74.7633C87.5236 73.5453 86.6246 72.3853 85.5516 71.3993C85.5226 71.3703 85.4646 71.3123 85.4066 71.2833C84.0146 69.9783 82.3905 68.9052 80.5635 68.0642C79.1425 67.4262 77.6054 66.9332 75.9524 66.6142C74.8794 66.4112 73.7774 66.3242 72.6174 66.2952C72.1533 66.2952 71.7183 66.2952 71.2833 66.3242C69.9783 66.3822 68.7893 66.5562 67.4843 66.8752C67.2813 66.0632 67.1073 65.2512 66.9042 64.4972C66.5272 62.9601 66.2082 61.5681 65.9182 60.3211C65.4252 58.175 65.0772 56.551 64.9032 55.797C64.8452 55.565 64.8162 55.42 64.8162 55.362C64.8162 55.333 64.8162 55.304 64.8162 55.304C64.6712 55.42 64.5262 55.536 64.3522 55.652C63.3952 56.435 62.0902 57.711 61.0461 58.784C60.8721 58.9581 60.6981 59.1321 60.5531 59.3061C61.1911 61.4521 61.8002 63.8011 62.4092 66.0922C62.6122 66.8462 62.8152 67.6002 63.0182 68.3252C60.7561 69.3402 58.7261 70.6743 57.0151 72.2403C56.4351 72.7623 55.913 73.3133 55.42 73.8643L55.362 73.9223C54.782 74.5603 54.26 75.2273 53.767 75.9234C53.448 76.3874 53.158 76.8804 52.868 77.3444C52.172 78.5624 51.65 79.8964 51.302 81.2885C50.896 82.9705 50.751 84.7395 50.954 86.6536C50.983 86.9436 51.012 87.2626 51.07 87.5526C51.157 88.1036 51.273 88.6256 51.447 89.1476C51.737 90.1626 52.143 91.1486 52.665 92.0477C52.984 92.5987 53.332 93.1207 53.738 93.6137C53.941 93.8747 54.173 94.1357 54.405 94.3967C55.101 95.1507 55.9131 95.8467 56.8411 96.4557C56.3481 95.8757 55.9131 95.2667 55.536 94.6287C55.014 93.7587 54.608 92.8307 54.318 91.8736C54.202 91.4386 54.086 91.0036 53.999 90.5686C53.97 90.3366 53.941 90.0756 53.912 89.8436C53.883 89.4086 53.854 89.0026 53.854 88.5676C53.854 88.5096 53.854 88.4516 53.854 88.4226C54.028 84.2755 56.6381 80.6794 60.6401 78.3594C61.9742 77.5764 63.4532 76.9674 65.0482 76.5034C66.1502 80.9695 67.0493 85.4645 67.8613 89.9016C67.8613 89.9596 67.8903 90.0176 67.8903 90.0756C67.8903 90.1336 67.9193 90.2206 67.9193 90.2786C68.3253 92.5697 68.7313 94.8317 69.0793 97.0937C69.3983 99.1238 69.7173 101.154 70.0073 103.155C67.4263 103.59 64.7872 103.822 62.0902 103.822C58.9871 103.822 55.9711 103.503 53.013 102.952C52.868 102.865 52.723 102.807 52.607 102.72C51.969 102.343 51.331 101.966 50.722 101.531C48.3149 99.8778 46.2559 97.8187 44.6609 95.5567C42.1088 91.9316 40.7458 87.7266 40.8908 83.6955C40.8908 83.6665 40.8908 83.6375 40.8908 83.6085C40.9198 83.2605 40.9488 82.9125 40.9778 82.5645C40.9778 82.5355 40.9778 82.4775 40.9778 82.4485C40.9778 82.3905 41.0068 82.3035 41.0068 82.2455C41.0358 81.9845 41.0648 81.7525 41.1228 81.4915C41.1228 81.4335 41.1518 81.3465 41.1518 81.2885C41.1518 81.2305 41.1808 81.2015 41.1808 81.1435C41.2388 80.8534 41.2968 80.5924 41.3548 80.3024C41.3838 80.2154 41.3838 80.1284 41.4128 80.0704C41.4998 79.7224 41.5868 79.3744 41.7028 79.0264C41.7318 78.8814 41.7898 78.7364 41.8188 78.6204C41.8768 78.4174 41.9638 78.1854 42.0218 77.9824C42.0508 77.8954 42.0798 77.8084 42.1088 77.7214C42.1378 77.6344 42.1668 77.5764 42.1958 77.4894C42.2538 77.2864 42.3408 77.0834 42.4278 76.8804C42.4858 76.7064 42.5438 76.5614 42.6308 76.3874C42.7468 76.0684 42.8918 75.7494 43.0368 75.4594C43.0658 75.4013 43.0658 75.3723 43.0948 75.3143C43.1528 75.1693 43.2398 74.9953 43.3268 74.8503C43.3848 74.7053 43.4718 74.5603 43.5298 74.4153C43.6458 74.2123 43.7328 73.9803 43.8488 73.7773C43.9068 73.6613 43.9648 73.5453 44.0518 73.4293C44.1388 73.2553 44.2258 73.1103 44.3128 72.9363C44.6609 72.3273 45.0379 71.7183 45.4439 71.1383C45.4729 71.0803 45.5309 71.0223 45.5599 70.9643C45.7339 70.7323 45.8789 70.5003 46.0529 70.2393C46.1109 70.1813 46.1689 70.0942 46.1979 70.0362C46.3139 69.8912 46.4299 69.7172 46.5459 69.5722C46.6039 69.4852 46.6619 69.3982 46.7489 69.3402C47.2419 68.7022 47.7639 68.0642 48.2859 67.4842C48.8949 66.8172 49.5329 66.1502 50.171 65.5412C51.94 63.9171 53.796 62.4091 55.652 60.9011C56.8991 59.9151 58.1461 58.929 59.3641 57.885C59.9731 57.363 60.5821 56.87 61.1621 56.319C62.3512 55.246 63.5112 54.144 64.6132 52.9549C65.9182 51.5049 67.0203 50.1709 67.9483 48.9239C68.5863 48.0829 69.1373 47.2708 69.6303 46.5168C70.1233 45.7338 70.5583 45.0088 70.9643 44.2838C71.9503 42.4858 72.6174 40.8327 73.1684 39.2087C73.3714 38.5707 73.5744 37.9327 73.7774 37.2947C73.9514 36.6567 74.1254 36.0186 74.2994 35.3806C74.5894 34.2496 74.8504 33.1186 75.0244 32.0166C75.3434 30.1025 75.5174 28.0145 75.5174 25.8685C75.5174 25.6655 75.5174 25.4625 75.5174 25.2594C75.5174 25.0854 75.5174 24.8824 75.4884 24.7084V24.6794C75.4594 23.6644 75.4014 22.6784 75.3144 21.6634C75.1984 20.4454 74.9954 19.2563 74.7634 18.0673C74.6474 17.4873 74.5024 16.8783 74.3574 16.2983C74.2124 15.7183 74.0384 15.1383 73.8354 14.5873C73.5164 13.6012 73.1394 12.6152 72.6464 11.6292C72.4434 11.2232 72.2403 10.8462 72.0373 10.4692C71.7473 9.94718 71.4283 9.42517 71.1093 8.93216C93.2367 13.1662 109.97 32.5966 109.97 55.971C110.028 73.6033 100.371 89.0896 86.0446 97.3837Z" fill="white"/>
<path d="M9.86004 72.7043C9.74404 72.3273 9.62804 71.9213 9.48304 71.4863L9.45404 71.4283L9.42504 71.3123C9.30903 70.9353 9.19303 70.5003 9.07703 70.0943V70.0652L9.04803 69.9783C9.01903 69.8913 8.99003 69.8042 8.99003 69.6882L8.96103 69.5432L8.84503 69.0502C2.95792 69.0502 0.0288696 69.0502 0.0288696 69.0502C6.32198 74.0673 10.3821 77.3444 12.2671 78.8524C11.3391 76.8224 10.5271 74.7923 9.86004 72.7043Z" fill="white"/>
<path d="M114.784 71.3123C114.755 71.3703 114.755 71.4283 114.726 71.4573L114.697 71.5443C114.552 72.0663 114.378 72.5883 114.204 73.0813L114.175 73.1683L114.117 73.3423C113.711 74.5023 113.276 75.6914 112.812 76.7934C112.783 76.8224 112.783 76.8804 112.754 76.9094L112.725 76.9674C112.551 77.4024 112.348 77.8664 112.116 78.3594C112.058 78.5044 111.971 78.6494 111.913 78.7944C113.798 77.2864 117.887 74.0383 124.18 69.0212C124.18 69.0212 121.251 69.0212 115.335 69.0212C115.306 69.1952 115.248 69.3692 115.219 69.5143C115.132 70.1233 114.958 70.7033 114.784 71.3123Z" fill="white"/>
<path d="M28.5656 64.4682C29.6966 69.3403 31.8136 73.7194 34.6847 77.4604C34.7137 77.0544 34.7427 76.6194 34.8007 76.2134C34.8877 75.4594 35.0037 74.7054 35.1197 73.9514C33.2637 70.9353 31.8716 67.5713 31.0306 63.9172C27.3475 47.7639 35.8737 31.6686 50.577 25.3465C50.577 25.2015 50.577 25.0855 50.577 24.9405C34.3657 30.4506 24.6505 47.4449 28.5656 64.4682Z" fill="white"/>
<path d="M8.38115 66.9912C7.80114 64.1492 7.42413 61.2201 7.30813 58.2911C6.67012 57.7111 6.29311 56.899 6.29311 55.971C6.29311 55.043 6.69912 54.231 7.30813 53.651C7.42413 50.6349 7.80114 47.6479 8.38115 44.7188H8.29415L8.81616 42.6888H0V68.9923C0 68.9923 2.92905 68.9923 8.81616 68.9923L8.29415 66.9622H8.38115V66.9912Z" fill="white"/>
<path d="M117.945 55.9999C117.945 56.928 117.539 57.74 116.93 58.32C116.785 61.945 116.263 65.5411 115.393 69.0502C121.28 69.0502 124.238 69.0502 124.238 69.0502V42.7467H115.422C116.292 46.3428 116.814 49.9968 116.959 53.7089C117.568 54.2599 117.945 55.0719 117.945 55.9999Z" fill="white"/>
<path d="M51.5629 24.9405C51.5629 24.8245 51.5629 24.7375 51.5629 24.6215C51.2439 24.7085 50.8959 24.8245 50.5769 24.9405C50.5769 25.0855 50.5769 25.2015 50.5769 25.3465C50.8959 25.2015 51.2439 25.0855 51.5629 24.9405Z" fill="white"/>
<path d="M407.214 35.1934C406.931 35.6639 406.649 35.8521 406.178 35.8521C405.802 35.8521 405.426 35.5698 404.861 35.0993C404.296 34.6288 403.544 34.0641 402.603 33.4995C401.661 32.9349 400.532 32.3703 399.121 31.8057C397.709 31.3352 396.015 31.0529 393.945 31.0529C391.875 31.0529 390.087 31.3352 388.487 31.8998C386.887 32.4644 385.664 33.3113 384.535 34.2524C383.5 35.2875 382.653 36.4167 382.182 37.7342C381.618 39.0516 381.335 40.4631 381.335 41.9688C381.335 43.8508 381.712 45.4506 382.559 46.768C383.406 47.9914 384.441 49.1206 385.758 49.9675C387.076 50.8145 388.581 51.5673 390.275 52.226C391.969 52.7906 393.663 53.4494 395.451 54.014C397.239 54.5786 398.933 55.2373 400.626 55.9901C402.32 56.743 403.826 57.5899 405.143 58.625C406.461 59.6602 407.59 60.9776 408.343 62.5774C409.19 64.1771 409.566 66.0592 409.566 68.4118C409.566 70.7643 409.19 73.0228 408.343 75.093C407.496 77.1633 406.367 79.0454 404.767 80.551C403.261 82.0566 401.285 83.28 399.121 84.221C396.956 85.1621 394.321 85.5384 391.404 85.5384C387.64 85.5384 384.441 84.8797 381.806 83.5623C379.077 82.2449 376.724 80.4569 374.748 78.1043L375.877 76.3164C376.16 75.94 376.536 75.7518 377.007 75.7518C377.289 75.7518 377.571 75.94 377.948 76.2223C378.324 76.5046 378.794 76.9751 379.265 77.4456C379.83 77.9161 380.394 78.3866 381.147 78.9512C381.9 79.5159 382.747 79.9864 383.782 80.4569C384.723 80.9274 385.946 81.3038 387.17 81.6802C388.487 81.9626 389.899 82.1508 391.498 82.1508C393.757 82.1508 395.733 81.7744 397.521 81.1157C399.309 80.4569 400.72 79.5159 401.944 78.2926C403.167 77.1633 404.108 75.7518 404.767 74.152C405.426 72.5523 405.708 70.8584 405.708 68.9763C405.708 67.0002 405.332 65.3063 404.485 64.083C403.638 62.7655 402.603 61.7304 401.285 60.8835C399.968 60.0366 398.462 59.2837 396.768 58.7191C395.074 58.1545 393.38 57.5899 391.592 57.0253C389.805 56.4606 388.111 55.8019 386.417 55.1432C384.723 54.4845 383.217 53.5435 381.9 52.5083C380.582 51.4732 379.453 50.0617 378.7 48.4619C377.853 46.8622 377.477 44.7919 377.477 42.4393C377.477 40.5572 377.853 38.7693 378.512 36.9813C379.265 35.1934 380.3 33.6877 381.712 32.3703C383.123 31.0529 384.817 29.9236 386.887 29.1708C388.958 28.3239 391.216 27.9474 393.851 27.9474C396.768 27.9474 399.403 28.418 401.756 29.359C404.108 30.3 406.178 31.7116 408.155 33.5936L407.214 35.1934Z" fill="white"/>
<path d="M460.099 28.3216V31.8034H440.244V84.8775H436.103V31.8034H416.153V28.3216H460.099Z" fill="white"/>
<path d="M474.497 59.2815V84.8775H470.357V28.3216H484.849C491.342 28.3216 496.235 29.5449 499.434 32.0857C502.634 34.6265 504.328 38.2965 504.328 43.1899C504.328 45.3542 503.951 47.3304 503.199 49.1184C502.446 50.9063 501.317 52.5061 499.999 53.8235C498.588 55.1409 496.894 56.2702 494.918 57.1171C492.941 57.9641 490.683 58.5287 488.236 58.811C488.895 59.1874 489.46 59.752 489.93 60.4107L509.409 84.8775H505.928C505.457 84.8775 505.081 84.7834 504.798 84.6893C504.516 84.5011 504.234 84.3129 503.951 83.8423L485.79 60.8813C485.601 60.5989 485.319 60.3166 485.131 60.1284C484.943 59.9402 484.66 59.752 484.378 59.6579C484.096 59.5638 483.719 59.4697 483.343 59.3756C482.966 59.2815 482.496 59.2815 481.931 59.2815H474.497V59.2815ZM474.497 56.1761H484.284C486.825 56.1761 488.989 55.8938 491.059 55.235C493.035 54.6704 494.729 53.8235 496.047 52.6943C497.458 51.565 498.493 50.2476 499.152 48.6478C499.905 47.0481 500.187 45.2601 500.187 43.3781C500.187 39.3316 498.87 36.4144 496.235 34.4383C493.6 32.4621 489.742 31.5211 484.754 31.5211H474.403V56.1761H474.497Z" fill="white"/>
<path d="M523.807 84.7834H519.667V28.2275H523.807V84.7834Z" fill="white"/>
<path d="M544.228 28.4157C544.416 28.5098 544.604 28.698 544.886 29.0744L581.492 78.1021C581.398 77.3493 581.398 76.5023 581.398 75.7495V28.3216H584.974V84.8775H583.092C582.716 84.8775 582.433 84.7834 582.245 84.6893C582.057 84.5952 581.775 84.407 581.586 84.0306L544.886 35.0029C544.98 35.7557 544.98 36.5086 544.98 37.2614V84.8775H541.404V28.3216H543.475C543.757 28.3216 544.039 28.3216 544.228 28.4157Z" fill="white"/>
<path d="M638.613 83.8424C635.413 84.8775 631.837 85.4422 627.791 85.4422C623.274 85.4422 619.322 84.7834 615.746 83.3719C612.17 81.9604 609.159 80.0783 606.618 77.5375C604.077 74.9967 602.195 71.9855 600.783 68.4096C599.466 64.8336 598.807 60.8813 598.807 56.4585C598.807 52.0356 599.466 48.0833 600.783 44.6015C602.101 41.0256 603.983 38.0143 606.43 35.4735C608.876 32.9327 611.888 31.0507 615.369 29.6391C618.851 28.2276 622.803 27.5688 627.132 27.5688C629.297 27.5688 631.273 27.7571 633.061 28.0394C634.849 28.3217 636.543 28.7922 638.142 29.3568C639.742 29.9214 641.154 30.6743 642.565 31.4271C643.977 32.1799 645.2 33.215 646.517 34.3443L645.388 36.1322C645.012 36.7909 644.447 36.885 643.694 36.6027C643.318 36.4145 642.753 36.0381 642 35.4735C641.248 34.9089 640.213 34.2502 638.895 33.5914C637.578 32.9327 635.978 32.3681 634.002 31.8976C632.026 31.4271 629.767 31.1447 626.944 31.1447C623.274 31.1447 619.98 31.7094 616.969 32.9327C613.958 34.062 611.511 35.7558 609.347 37.9202C607.276 40.0845 605.677 42.8135 604.548 45.9189C603.418 49.0243 602.854 52.6002 602.854 56.5525C602.854 60.5049 603.418 64.0808 604.548 67.2803C605.677 70.4798 607.277 73.1147 609.441 75.3731C611.605 77.5375 614.146 79.2314 617.251 80.4547C620.357 81.584 623.745 82.2426 627.603 82.2426C629.297 82.2426 630.802 82.1486 632.214 81.9604C633.625 81.7721 635.037 81.4898 636.26 81.0193C637.484 80.5488 638.801 80.1724 640.024 79.6078C641.248 79.0432 642.471 78.3845 643.694 77.6316V62.3869H632.872C632.59 62.3869 632.308 62.2929 632.12 62.1046C631.931 61.9164 631.837 61.7282 631.837 61.4459V59.1874H647.458V79.3255C644.824 81.3016 641.812 82.8073 638.613 83.8424Z" fill="white"/>
<path d="M689.428 35.1911C689.146 35.6616 688.864 35.8498 688.393 35.8498C688.017 35.8498 687.64 35.5675 687.076 35.097C686.511 34.6265 685.758 34.0619 684.817 33.4973C683.876 32.9326 682.747 32.368 681.336 31.8034C679.924 31.3329 678.23 31.0506 676.16 31.0506C674.09 31.0506 672.302 31.3329 670.702 31.8975C669.102 32.4621 667.879 33.3091 666.75 34.2501C665.714 35.2852 664.868 36.4145 664.397 37.7319C663.832 39.0493 663.55 40.4609 663.55 41.9665C663.55 43.8486 663.926 45.4483 664.773 46.7658C665.62 47.9891 666.656 49.1184 667.973 49.9653C669.29 50.8122 670.796 51.5651 672.49 52.2238C674.184 52.7884 675.878 53.4471 677.666 54.0117C679.454 54.5763 681.147 55.2351 682.841 55.9879C684.535 56.7407 686.041 57.5876 687.358 58.6228C688.676 59.6579 689.805 60.9753 690.558 62.5751C691.405 64.1748 691.781 66.0569 691.781 68.4095C691.781 70.7621 691.405 73.0205 690.558 75.0908C689.711 77.161 688.581 79.0431 686.982 80.5487C685.476 82.0544 683.5 83.2777 681.336 84.2188C679.077 85.0657 676.536 85.5362 673.619 85.5362C669.855 85.5362 666.655 84.8775 664.021 83.56C661.292 82.2426 658.939 80.4547 656.963 78.1021L658.092 76.3141C658.374 75.9377 658.751 75.7495 659.221 75.7495C659.504 75.7495 659.786 75.9377 660.162 76.22C660.539 76.5023 661.009 76.9728 661.48 77.4434C662.044 77.9139 662.609 78.3844 663.362 78.949C664.115 79.5136 664.962 79.9841 665.997 80.4547C667.032 80.9252 668.161 81.3016 669.384 81.678C670.702 81.9603 672.113 82.1485 673.713 82.1485C675.972 82.1485 677.948 81.7721 679.736 81.1134C681.524 80.4547 682.935 79.5136 684.159 78.2903C685.382 77.1611 686.323 75.7495 686.982 74.1497C687.64 72.55 687.923 70.8561 687.923 68.9741C687.923 66.9979 687.546 65.3041 686.699 64.0807C685.852 62.8574 684.817 61.7282 683.5 60.8813C682.182 60.0343 680.677 59.2815 678.983 58.7168C677.289 58.1522 675.595 57.5876 673.807 57.023C672.019 56.4584 670.325 55.7997 668.632 55.1409C666.938 54.4822 665.432 53.5412 664.115 52.5061C662.797 51.4709 661.668 50.0594 660.915 48.4597C660.068 46.8599 659.692 44.7896 659.692 42.437C659.692 40.555 660.068 38.767 660.727 36.9791C661.48 35.1911 662.515 33.6855 663.926 32.368C665.338 31.0506 667.032 29.9214 669.102 29.1685C671.172 28.3216 673.431 27.9452 676.066 27.9452C678.983 27.9452 681.618 28.4157 683.97 29.3567C686.323 30.2978 688.393 31.7093 690.369 33.5914L689.428 35.1911Z" fill="white"/>
<path d="M166.592 84.7835V27.2866H185.789C189.459 27.2866 192.565 27.6629 195.199 28.3217C197.834 29.0745 199.999 30.0155 201.598 31.333C203.292 32.6504 204.516 34.2502 205.268 36.1322C206.021 38.0143 206.492 40.0845 206.492 42.4371C206.492 43.7546 206.304 45.072 205.833 46.3895C205.457 47.7069 204.798 48.8361 203.951 49.9654C203.104 51.0946 201.975 52.0356 200.657 52.9767C199.34 53.8236 197.834 54.5764 196.046 55.2351C200.093 56.0821 203.198 57.5877 205.174 59.7521C207.151 61.9165 208.186 64.7395 208.186 68.2214C208.186 70.668 207.715 72.9265 206.774 74.9968C205.833 77.067 204.516 78.7609 202.822 80.2665C201.034 81.7722 198.964 82.9014 196.329 83.7483C193.788 84.5953 190.871 84.9717 187.577 84.9717H166.592V84.7835ZM176.002 52.6003H185.319C189.271 52.6003 192.282 51.8474 194.258 50.2477C196.235 48.6479 197.176 46.4836 197.176 43.5664C197.176 40.3669 196.235 38.1084 194.353 36.6969C192.47 35.2853 189.647 34.6266 185.695 34.6266H176.002V52.6003ZM176.002 59.1874V77.4434H187.577C189.647 77.4434 191.435 77.1611 192.941 76.6906C194.447 76.2201 195.576 75.5614 196.517 74.7144C197.458 73.8675 198.117 72.8324 198.493 71.7032C198.869 70.5739 199.152 69.2565 199.152 67.9391C199.152 65.2101 198.211 63.0457 196.329 61.54C194.447 59.9403 191.529 59.1874 187.577 59.1874H176.002Z" fill="white"/>
<path d="M255.519 27.2866V34.8148H229.077V52.1297H250.25V59.4698H229.077V77.2552H255.614V84.7835H219.76V27.2866H255.519V27.2866Z" fill="white"/>
<path d="M314.616 84.7835H307.37C306.523 84.7835 305.865 84.5952 305.394 84.1247C304.924 83.7483 304.547 83.1837 304.265 82.6191L299.466 69.9152H274.716L269.917 82.6191C269.729 83.1837 269.353 83.6542 268.788 84.1247C268.223 84.5952 267.565 84.7835 266.812 84.7835H259.566L282.339 27.2866H291.843L314.616 84.7835ZM277.163 63.2339H296.925L289.02 42.2489C288.738 41.4961 288.361 40.5551 288.079 39.5199C287.703 38.4848 287.42 37.3556 287.138 36.0381C286.856 37.2615 286.479 38.4848 286.197 39.5199C285.821 40.5551 285.538 41.4961 285.256 42.343L277.163 63.2339Z" fill="white"/>
<path d="M356.021 27.2866V35.0971H338.048V84.8776H328.826V35.0971H310.852V27.2866H356.021Z" fill="white"/>
</svg>
