<svg width="245" height="39" viewBox="0 0 245 39" fill="none" xmlns="http://www.w3.org/2000/svg">
<path d="M143.517 12.6667C143.416 12.8327 143.316 12.8991 143.148 12.8991C143.014 12.8991 142.879 12.7995 142.678 12.6335C142.477 12.4675 142.208 12.2683 141.872 12.0691C141.537 11.8699 141.134 11.6707 140.631 11.4715C140.127 11.3056 139.523 11.206 138.785 11.206C138.047 11.206 137.409 11.3056 136.839 11.5047C136.268 11.7039 135.832 12.0027 135.429 12.3347C135.06 12.6999 134.758 13.0983 134.59 13.563C134.389 14.0278 134.288 14.5258 134.288 15.057C134.288 15.7209 134.422 16.2853 134.724 16.7501C135.026 17.1816 135.396 17.58 135.865 17.8788C136.335 18.1776 136.872 18.4432 137.476 18.6756C138.08 18.8748 138.684 19.1071 139.322 19.3063C139.96 19.5055 140.564 19.7379 141.168 20.0035C141.772 20.2691 142.309 20.5679 142.779 20.9331C143.248 21.2982 143.651 21.763 143.92 22.3274C144.222 22.8918 144.356 23.5557 144.356 24.3857C144.356 25.2156 144.222 26.0124 143.92 26.7427C143.618 27.4731 143.215 28.1371 142.644 28.6682C142.107 29.1994 141.403 29.631 140.631 29.963C139.859 30.295 138.919 30.4277 137.879 30.4277C136.537 30.4277 135.396 30.1954 134.456 29.7306C133.483 29.2658 132.644 28.6351 131.939 27.8051L132.342 27.1743C132.442 27.0415 132.577 26.9751 132.744 26.9751C132.845 26.9751 132.946 27.0415 133.08 27.1411C133.214 27.2407 133.382 27.4067 133.55 27.5727C133.751 27.7387 133.953 27.9047 134.221 28.1039C134.489 28.3031 134.792 28.4691 135.161 28.6351C135.496 28.801 135.933 28.9338 136.369 29.0666C136.839 29.1662 137.342 29.2326 137.913 29.2326C138.718 29.2326 139.423 29.0998 140.06 28.8674C140.698 28.6351 141.201 28.3031 141.638 27.8715C142.074 27.4731 142.409 26.9751 142.644 26.4108C142.879 25.8464 142.98 25.2488 142.98 24.5849C142.98 23.8877 142.846 23.2901 142.544 22.8585C142.242 22.3938 141.873 22.0286 141.403 21.7298C140.933 21.431 140.396 21.1654 139.792 20.9662C139.188 20.7671 138.584 20.5679 137.946 20.3687C137.308 20.1695 136.704 19.9371 136.1 19.7047C135.496 19.4723 134.959 19.1403 134.489 18.7752C134.02 18.41 133.617 17.912 133.348 17.3476C133.046 16.7833 132.912 16.0529 132.912 15.2229C132.912 14.559 133.046 13.9282 133.281 13.2974C133.55 12.6667 133.919 12.1355 134.422 11.6707C134.926 11.206 135.53 10.8076 136.268 10.542C137.006 10.2432 137.812 10.1104 138.751 10.1104C139.792 10.1104 140.731 10.2764 141.57 10.6084C142.409 10.9404 143.148 11.4383 143.852 12.1023L143.517 12.6667Z" fill="#333333"/>
<path d="M162.377 10.2429V11.4713H155.296V30.195H153.82V11.4713H146.705V10.2429H162.377Z" fill="#333333"/>
<path d="M167.512 21.1651V30.195H166.035V10.2429H171.203C173.519 10.2429 175.264 10.6745 176.405 11.5708C177.546 12.4672 178.15 13.7619 178.15 15.4882C178.15 16.2518 178.016 16.949 177.747 17.5797C177.479 18.2105 177.076 18.7749 176.606 19.2396C176.103 19.7044 175.499 20.1028 174.794 20.4016C174.089 20.7004 173.284 20.8995 172.411 20.9991C172.646 21.1319 172.848 21.3311 173.015 21.5635L179.962 30.195H178.721C178.553 30.195 178.419 30.1618 178.318 30.1286C178.217 30.0623 178.116 29.9958 178.016 29.8299L171.539 21.7295C171.472 21.6299 171.371 21.5303 171.304 21.4639C171.237 21.3975 171.136 21.3311 171.035 21.2979C170.935 21.2647 170.801 21.2315 170.666 21.1983C170.532 21.1651 170.364 21.1651 170.163 21.1651H167.512ZM167.512 20.0696H171.002C171.908 20.0696 172.68 19.97 173.418 19.7376C174.123 19.5384 174.727 19.2396 175.197 18.8413C175.7 18.4429 176.069 17.9781 176.304 17.4137C176.573 16.8494 176.673 16.2186 176.673 15.5546C176.673 14.1271 176.204 13.098 175.264 12.4008C174.324 11.7036 172.948 11.3717 171.17 11.3717H167.478V20.0696H167.512Z" fill="#333333"/>
<path d="M185.097 30.1621H183.62V10.21H185.097V30.1621Z" fill="#333333"/>
<path d="M192.379 10.2761C192.446 10.3093 192.513 10.3757 192.614 10.5085L205.669 27.8048C205.635 27.5392 205.635 27.2404 205.635 26.9748V10.2429H206.91V30.195H206.239C206.105 30.195 206.004 30.1618 205.937 30.1286C205.87 30.0955 205.769 30.0291 205.702 29.8963L192.614 12.6C192.648 12.8656 192.648 13.1312 192.648 13.3967V30.195H191.372V10.2429H192.111C192.211 10.2429 192.312 10.2429 192.379 10.2761Z" fill="#333333"/>
<path d="M226.039 29.8301C224.898 30.1952 223.623 30.3944 222.18 30.3944C220.569 30.3944 219.159 30.162 217.884 29.6641C216.609 29.1661 215.535 28.5021 214.629 27.6058C213.723 26.7094 213.052 25.6471 212.548 24.3856C212.078 23.124 211.844 21.7297 211.844 20.1694C211.844 18.6091 212.078 17.2147 212.548 15.9864C213.018 14.7249 213.689 13.6625 214.562 12.7662C215.434 11.8698 216.508 11.2059 217.75 10.7079C218.992 10.2099 220.401 9.97754 221.945 9.97754C222.717 9.97754 223.421 10.0439 224.059 10.1435C224.697 10.2431 225.301 10.4091 225.871 10.6083C226.442 10.8075 226.945 11.0731 227.449 11.3387C227.952 11.6043 228.388 11.9694 228.858 12.3678L228.455 12.9986C228.321 13.231 228.12 13.2642 227.851 13.1646C227.717 13.0982 227.516 12.9654 227.247 12.7662C226.979 12.567 226.61 12.3346 226.14 12.1022C225.67 11.8698 225.099 11.6706 224.395 11.5047C223.69 11.3387 222.884 11.2391 221.878 11.2391C220.569 11.2391 219.394 11.4383 218.32 11.8698C217.247 12.2682 216.374 12.8658 215.602 13.6293C214.864 14.3929 214.293 15.3556 213.891 16.4512C213.488 17.5467 213.287 18.8083 213.287 20.2026C213.287 21.5969 213.488 22.8584 213.891 23.9872C214.293 25.1159 214.864 26.0455 215.636 26.8422C216.408 27.6058 217.314 28.2034 218.421 28.6349C219.529 29.0333 220.737 29.2657 222.113 29.2657C222.717 29.2657 223.254 29.2325 223.757 29.1661C224.26 29.0997 224.764 29.0001 225.2 28.8341C225.636 28.6681 226.106 28.5353 226.542 28.3361C226.979 28.1369 227.415 27.9046 227.851 27.639V22.2609H223.992C223.891 22.2609 223.791 22.2277 223.723 22.1613C223.656 22.0949 223.623 22.0285 223.623 21.9289V21.1321H229.194V28.2365C228.254 28.9337 227.18 29.4649 226.039 29.8301Z" fill="#333333"/>
<path d="M244.161 12.6667C244.06 12.8327 243.96 12.8991 243.792 12.8991C243.658 12.8991 243.523 12.7995 243.322 12.6335C243.121 12.4675 242.852 12.2683 242.517 12.0691C242.181 11.8699 241.778 11.6707 241.275 11.4715C240.771 11.3056 240.167 11.206 239.429 11.206C238.691 11.206 238.053 11.3056 237.483 11.5047C236.912 11.7039 236.476 12.0027 236.073 12.3347C235.704 12.6999 235.402 13.0983 235.234 13.563C235.033 14.0278 234.932 14.5258 234.932 15.057C234.932 15.7209 235.066 16.2853 235.368 16.7501C235.67 17.1816 236.04 17.58 236.509 17.8788C236.979 18.1776 237.516 18.4432 238.12 18.6756C238.724 18.8748 239.328 19.1071 239.966 19.3063C240.604 19.5055 241.208 19.7379 241.812 20.0035C242.416 20.2691 242.953 20.5679 243.423 20.9331C243.892 21.2982 244.295 21.763 244.564 22.3274C244.866 22.8918 245 23.5557 245 24.3857C245 25.2156 244.866 26.0124 244.564 26.7427C244.262 27.4731 243.859 28.1371 243.288 28.6682C242.751 29.1994 242.047 29.631 241.275 29.963C240.469 30.2618 239.563 30.4277 238.523 30.4277C237.181 30.4277 236.04 30.1954 235.1 29.7306C234.127 29.2658 233.288 28.6351 232.583 27.8051L232.986 27.1743C233.086 27.0415 233.221 26.9751 233.388 26.9751C233.489 26.9751 233.59 27.0415 233.724 27.1411C233.858 27.2407 234.026 27.4067 234.194 27.5727C234.395 27.7387 234.597 27.9047 234.865 28.1039C235.134 28.3031 235.436 28.4691 235.805 28.6351C236.174 28.801 236.577 28.9338 237.013 29.0666C237.483 29.1662 237.986 29.2326 238.557 29.2326C239.362 29.2326 240.067 29.0998 240.704 28.8674C241.342 28.6351 241.845 28.3031 242.282 27.8715C242.718 27.4731 243.053 26.9751 243.288 26.4108C243.523 25.8464 243.624 25.2488 243.624 24.5849C243.624 23.8877 243.49 23.2901 243.188 22.8585C242.886 22.427 242.517 22.0286 242.047 21.7298C241.577 21.431 241.04 21.1654 240.436 20.9662C239.832 20.7671 239.228 20.5679 238.59 20.3687C237.952 20.1695 237.348 19.9371 236.744 19.7047C236.14 19.4723 235.603 19.1403 235.134 18.7752C234.664 18.41 234.261 17.912 233.993 17.3476C233.69 16.7833 233.556 16.0529 233.556 15.2229C233.556 14.559 233.69 13.9282 233.925 13.2974C234.194 12.6667 234.563 12.1355 235.066 11.6707C235.57 11.206 236.174 10.8076 236.912 10.542C237.65 10.2432 238.456 10.1104 239.396 10.1104C240.436 10.1104 241.376 10.2764 242.215 10.6084C243.054 10.9404 243.792 11.4383 244.497 12.1023L244.161 12.6667Z" fill="#333333"/>
<path d="M57.7059 30.1622V9.87811H64.552C65.8608 9.87811 66.9683 10.0109 67.9079 10.2433C68.8476 10.5089 69.6195 10.8409 70.19 11.3056C70.794 11.7704 71.2303 12.3348 71.4988 12.9987C71.7673 13.6627 71.935 14.3931 71.935 15.223C71.935 15.6878 71.8679 16.1526 71.7001 16.6173C71.5659 17.0821 71.331 17.4805 71.029 17.8789C70.7269 18.2773 70.3242 18.6092 69.8544 18.9412C69.3845 19.24 68.8476 19.5056 68.21 19.738C69.653 20.0368 70.7605 20.5679 71.4652 21.3315C72.17 22.0951 72.5391 23.091 72.5391 24.3193C72.5391 25.1825 72.3713 25.9792 72.0357 26.7096C71.7001 27.44 71.2303 28.0375 70.6262 28.5687C69.9886 29.0999 69.2503 29.4983 68.3107 29.797C67.4046 30.0958 66.3642 30.2286 65.1896 30.2286H57.7059V30.1622ZM61.0619 18.8084H64.3842C65.7937 18.8084 66.8676 18.5428 67.5723 17.9785C68.2771 17.4141 68.6127 16.6505 68.6127 15.6214C68.6127 14.4927 68.2771 13.6959 67.6059 13.1979C66.9347 12.7 65.9279 12.4676 64.5185 12.4676H61.0619V18.8084ZM61.0619 21.1323V27.5728H65.1896C65.9279 27.5728 66.5656 27.4732 67.1025 27.3072C67.6395 27.1412 68.0422 26.9088 68.3778 26.61C68.7134 26.3112 68.9483 25.9461 69.0825 25.5477C69.2168 25.1493 69.3174 24.6845 69.3174 24.2197C69.3174 23.257 68.9818 22.4934 68.3107 21.9623C67.6395 21.3979 66.5991 21.1323 65.1896 21.1323H61.0619Z" fill="#32348D"/>
<path d="M89.4194 9.87787V12.5337H79.9892V18.6422H87.5401V21.2317H79.9892V27.5061H89.4529V30.162H76.6669V9.87787H89.4194Z" fill="#32348D"/>
<path d="M110.495 30.162H107.911C107.609 30.162 107.374 30.0956 107.206 29.9296C107.038 29.7968 106.904 29.5976 106.803 29.3984L105.092 24.9166H96.2656L94.5541 29.3984C94.4869 29.5976 94.3527 29.7636 94.1514 29.9296C93.95 30.0956 93.7151 30.162 93.4466 30.162H90.8625L98.9839 9.87787H102.373L110.495 30.162ZM97.1381 22.5596H104.186L101.367 15.1564C101.266 14.8908 101.132 14.5588 101.031 14.1936C100.897 13.8285 100.796 13.4301 100.695 12.9653C100.595 13.3969 100.46 13.8285 100.36 14.1936C100.226 14.5588 100.125 14.8908 100.024 15.1896L97.1381 22.5596Z" fill="#32348D"/>
<path d="M125.261 9.87787V12.6333H118.851V30.1952H115.562V12.6333H109.152V9.87787H125.261Z" fill="#32348D"/>
<path d="M3.61123 25.0773C3.57042 24.936 3.52962 24.8049 3.48881 24.6737C3.47861 24.6535 3.47861 24.6333 3.46841 24.6131C3.42761 24.4819 3.3868 24.3406 3.3562 24.1994C3.3562 24.1893 3.346 24.1691 3.346 24.159C3.3358 24.1085 3.31539 24.0581 3.30519 24.0076C1.10173 24.0076 0 24.0076 0 24.0076C3.15217 26.5002 4.73336 27.7516 4.73336 27.7516C4.71296 27.7112 4.69256 27.6708 4.67215 27.6305C4.2539 26.8131 3.90706 25.9654 3.61123 25.0773Z" fill="#7F7F7F"/>
<path d="M40.2233 24.6231C40.213 24.6534 40.2028 24.6736 40.2028 24.7038C40.1518 24.8754 40.1008 25.0469 40.0396 25.2185C40.0294 25.2488 40.0192 25.279 40.009 25.2992C39.8764 25.6928 39.7336 26.0763 39.5704 26.4597C39.5602 26.4799 39.55 26.5001 39.55 26.5203C39.4888 26.6717 39.4174 26.8331 39.3459 26.9845C39.3153 27.0451 39.2847 27.1056 39.2541 27.1762C39.2031 27.2772 39.1623 27.3781 39.1113 27.479C39.0705 27.5698 39.0195 27.6606 38.9787 27.7515C38.9787 27.7615 38.9685 27.7615 38.9685 27.7716C38.9685 27.7716 40.5497 26.5304 43.7019 24.0277C43.7019 24.0277 42.6001 24.0277 40.3967 24.0277C40.3355 24.2194 40.2845 24.4213 40.2233 24.6231Z" fill="#7F7F7F"/>
<path d="M12.6393 26.1571C11.8538 24.9966 11.252 23.6847 10.9255 22.2416C9.58917 16.4996 12.7618 10.7777 18.1378 8.68876C18.1378 8.6484 18.1378 8.61812 18.1378 8.57776C12.2313 10.3639 8.64046 16.3885 10.0482 22.4434C10.4869 24.3204 11.354 25.9754 12.5169 27.358C12.5271 27.0956 12.5475 26.8332 12.5781 26.5708C12.5985 26.4195 12.6189 26.2883 12.6393 26.1571Z" fill="#32348D"/>
<path d="M2.20351 19.4866C2.20351 19.083 2.42794 18.7298 2.75438 18.538C2.81559 17.2766 3.00941 16.0555 3.31544 14.8748H0.0102539V24.0278C0.0102539 24.0278 1.11198 24.0278 3.31544 24.0278C3.01961 22.8673 2.82579 21.6765 2.76458 20.4453C2.42794 20.2435 2.20351 19.8903 2.20351 19.4866Z" fill="#32348D"/>
<path d="M40.3867 14.8647C40.6927 16.0454 40.8763 17.2765 40.9375 18.538C41.264 18.7297 41.4782 19.0829 41.4782 19.4866C41.4782 19.8902 41.2538 20.2434 40.9273 20.4352C40.8661 21.6663 40.6723 22.8672 40.3765 24.0277C42.5799 24.0277 43.6817 24.0277 43.6817 24.0277V14.8748H40.3867V14.8647Z" fill="#32348D"/>
<path d="M32.093 26.4699L32.0828 26.4598V26.4497L32.0522 26.3891C32.042 26.3589 32.0216 26.3286 32.0114 26.2983C33.409 24.2699 34.1537 21.8985 34.1537 19.4361C34.1537 14.8344 31.4707 10.5657 27.3086 8.51718L27.2882 8.07316C27.278 7.85115 27.2576 7.64932 27.2372 7.4374C27.1862 6.98328 27.125 6.53926 27.0332 6.11542C26.9822 5.89341 26.9312 5.67139 26.8802 5.45947C26.819 5.24755 26.7578 5.02554 26.6864 4.82371C26.615 4.59161 26.5232 4.3595 26.4211 4.11731C33.2559 6.11542 37.9791 12.3519 37.9791 19.4361C37.9791 21.9792 37.3976 24.4011 36.2449 26.6515C35.2554 28.579 33.8578 30.3046 32.1746 31.6973C32.195 31.6367 32.2154 31.5863 32.2256 31.5257C32.4399 30.789 32.5725 30.1835 32.6133 29.6083C32.6337 29.3863 32.6337 29.1643 32.6337 28.9524V28.9221V28.912C32.6133 28.2258 32.4807 27.5396 32.246 26.8836L32.093 26.4699Z" fill="#32348D"/>
<path d="M39.8561 14.8647C38.9686 11.4538 37.1221 8.42636 34.6126 6.08515C34.6331 6.06496 34.6637 6.04478 34.6841 6.01451C35.1023 5.52003 35.0309 4.79344 34.5412 4.37969C34.0414 3.96594 33.2967 4.03658 32.8784 4.52097C32.858 4.55125 32.8376 4.58152 32.8172 4.61179C29.9813 2.55314 26.5333 1.27152 22.7895 1.07979C22.7793 0.48439 22.2794 0 21.6775 0C21.0655 0 20.5656 0.48439 20.5656 1.08988C16.9442 1.33207 13.6186 2.6036 10.8642 4.6017C10.8438 4.57143 10.8234 4.54115 10.803 4.51088C10.3848 4.0164 9.6401 3.95585 9.15044 4.3696C8.65059 4.78335 8.58938 5.52003 9.00763 6.00442C9.02803 6.03469 9.05863 6.05487 9.07904 6.07505C6.56954 8.41627 4.72312 11.4538 3.83562 14.8647C3.45817 16.328 3.25415 17.8619 3.25415 19.4462C3.25415 21.0205 3.45817 22.5544 3.83562 24.0177C3.84582 24.0681 3.85602 24.1186 3.87642 24.169C3.87642 24.1791 3.88662 24.1993 3.88662 24.2094C3.92743 24.3507 3.95803 24.4819 3.99884 24.6231C4.00904 24.6433 4.00904 24.6635 4.01924 24.6837C4.06005 24.8149 4.10085 24.9562 4.14165 25.0874C4.42729 25.9754 4.78433 26.8332 5.20258 27.6506C6.17169 29.568 7.47745 31.3037 9.02803 32.7669C9.01783 32.777 9.00763 32.7871 8.99743 32.7972C8.57918 33.2917 8.64039 34.0284 9.14024 34.432C9.6401 34.8458 10.3746 34.7852 10.7928 34.2908C10.803 34.2807 10.803 34.2706 10.8132 34.2605C13.5778 36.2788 16.9238 37.5604 20.5656 37.8026C20.5656 37.8228 20.5656 37.853 20.5656 37.8732C20.5656 38.4787 21.0655 38.9732 21.6775 38.9732C22.2896 38.9732 22.7895 38.4787 22.7895 37.8732C22.7895 37.853 22.7895 37.8429 22.7895 37.8228C26.5741 37.631 30.0527 36.3292 32.909 34.2302C33.3273 34.7045 34.0516 34.755 34.5412 34.3513C35.0309 33.9477 35.1023 33.2211 34.6943 32.7367C36.204 31.3037 37.469 29.6184 38.4279 27.7616C38.4789 27.6708 38.5197 27.5799 38.5605 27.4891C38.6115 27.3882 38.6625 27.2873 38.7033 27.1864C38.7339 27.1258 38.7645 27.0653 38.7951 26.9946C38.8666 26.8433 38.938 26.6818 38.9992 26.5304C39.0094 26.5103 39.0196 26.4901 39.0196 26.4699C39.1828 26.0864 39.3256 25.7029 39.4582 25.3094C39.4684 25.2791 39.4786 25.2488 39.4888 25.2286C39.55 25.0571 39.601 24.8855 39.652 24.714C39.6622 24.6837 39.6724 24.6635 39.6724 24.6332C39.7337 24.4314 39.7847 24.2397 39.8357 24.0378C40.2131 22.5746 40.4171 21.0407 40.4171 19.4563C40.4375 17.8619 40.2335 16.328 39.8561 14.8647ZM4.99856 19.4462C4.99856 10.8887 11.5171 3.84484 19.9127 2.89625C19.5353 3.46137 19.2496 4.09713 19.0456 4.77326C18.6886 5.93377 18.556 7.21539 18.5254 8.47682C18.5254 8.497 18.5254 8.52728 18.5254 8.54746C18.5151 9.2034 18.5254 9.83917 18.5458 10.4547C18.556 10.6364 18.5764 10.8079 18.5866 10.9896C18.607 11.1712 18.6274 11.3428 18.6478 11.5244C18.7192 12.0593 18.811 12.584 18.9232 13.1088C19.0558 13.684 19.219 14.2491 19.4027 14.8042C19.4537 14.9454 19.4945 15.0766 19.5455 15.2179C19.5965 15.3592 19.6577 15.5005 19.7087 15.6418C19.7903 15.5509 19.8617 15.4601 19.9331 15.3794C19.9637 15.3491 19.9841 15.3188 20.0147 15.2886C20.0555 15.2381 20.0963 15.1876 20.1371 15.1473C20.1677 15.1069 20.2086 15.0766 20.2392 15.0363C20.2698 15.006 20.3004 14.9757 20.3208 14.9454C20.3616 14.9051 20.4024 14.8546 20.4432 14.8143C20.7492 14.4812 21.0042 14.2289 21.2389 13.9363C21.0859 13.5629 20.943 13.1693 20.8206 12.7657C20.7798 12.6345 20.739 12.4932 20.6982 12.362C20.6166 12.0896 20.5554 11.8171 20.4942 11.5446C20.4534 11.2822 20.4126 11.0098 20.382 10.7373C20.331 10.3236 20.2902 9.89971 20.2698 9.47587C20.2494 9.19331 20.2494 8.91075 20.2494 8.62819C20.2494 8.62819 20.2494 8.62819 20.2494 8.6181C20.2494 8.04289 20.2902 7.47777 20.3718 6.92274C20.3922 6.78146 20.4228 6.65027 20.4432 6.50899C20.4942 6.23652 20.5656 5.97414 20.6472 5.71176C20.7288 5.44938 20.8308 5.1971 20.943 4.9549C21.902 2.89625 23.9626 2.38158 24.6665 5.36865C24.7583 5.77231 24.8093 6.16588 24.8195 6.56954C24.8399 7.06402 24.7991 7.54841 24.7277 8.0328C24.7175 8.13371 24.6971 8.22453 24.6869 8.32545C24.5951 8.90066 24.4523 9.47587 24.3196 10.041C24.2788 10.2226 24.2176 10.3942 24.1564 10.5658C24.0952 10.7272 24.034 10.8887 23.9728 11.04C23.8402 11.3529 23.677 11.6556 23.5035 11.9584C23.4423 12.0694 23.3709 12.1905 23.2995 12.3015C23.0139 12.7556 22.6874 13.2198 22.31 13.684C22.0346 14.0271 21.7285 14.3803 21.4123 14.7335C20.7696 15.4298 20.1269 16.0757 19.4537 16.7316C18.7804 17.3876 18.0969 18.0536 17.3828 18.8004C15.9036 20.3444 14.6387 21.8783 13.843 23.5131C13.741 23.7149 13.6594 23.9268 13.5676 24.1287C13.5166 24.2699 13.4656 24.4011 13.4145 24.5424C13.4145 24.5525 13.4145 24.5525 13.4043 24.5626C13.3635 24.6938 13.3125 24.825 13.2819 24.9562C13.2717 24.9965 13.2615 25.0369 13.2513 25.0773C13.2207 25.1782 13.1901 25.2791 13.1697 25.3901C13.1391 25.5415 13.1085 25.6928 13.0779 25.8442C13.0269 26.1066 12.9963 26.369 12.9657 26.6313C12.9249 27.0148 12.8943 27.3983 12.8841 27.7818C12.8535 30.1432 13.6186 32.6358 16.1587 34.9063C16.3219 35.0577 16.4953 35.199 16.6687 35.3403C9.89513 33.1403 4.99856 26.8634 4.99856 19.4462ZM29.9303 30.789C29.9303 30.8597 29.9201 30.9303 29.9201 31.011C29.9303 31.3239 29.8793 31.6569 29.7773 32.0202C29.6753 32.3835 29.5324 32.7468 29.3386 33.1202C29.104 33.5642 28.8082 34.0082 28.4613 34.4421C28.2981 34.6339 28.1247 34.8256 27.9513 34.9972C27.2984 35.2494 26.6251 35.4614 25.9314 35.6329C25.9314 35.6127 25.9314 35.5926 25.9212 35.5724C25.911 35.5219 25.911 35.4412 25.9008 35.3605C25.9008 35.3201 25.8906 35.2696 25.8804 35.2192C25.8702 35.1183 25.86 34.9972 25.8396 34.866C25.8294 34.8054 25.8192 34.7348 25.8192 34.6641C25.7988 34.533 25.7886 34.3816 25.7682 34.2302C25.758 34.1394 25.7478 34.0385 25.7274 33.9376C25.707 33.7559 25.6764 33.5642 25.656 33.3623C25.6254 33.1605 25.605 32.9486 25.5744 32.7367C25.5438 32.5147 25.5132 32.2927 25.4826 32.0505C25.4316 31.6973 25.3806 31.3239 25.3194 30.9404C25.0949 29.5276 24.8195 27.9432 24.4625 26.369C24.5747 26.3589 24.5747 26.3589 24.6869 26.3589C24.9827 26.3589 25.2581 26.369 25.5336 26.3992C25.7172 26.4194 25.9008 26.4497 26.0742 26.48C26.2273 26.5103 26.3803 26.5506 26.5333 26.591C26.7169 26.6414 26.9005 26.702 27.074 26.7726C27.3086 26.8634 27.533 26.9644 27.7472 27.0855C27.8901 27.1662 28.0227 27.2469 28.1553 27.3377C28.4103 27.5194 28.6449 27.7212 28.8592 27.9331C28.951 28.0341 29.0428 28.135 29.1244 28.2359C29.1754 28.3065 29.2366 28.3772 29.2876 28.4478C29.3488 28.5386 29.41 28.6395 29.4712 28.7405C29.5223 28.8313 29.5733 28.9221 29.6141 29.023C29.6549 29.1038 29.6855 29.1946 29.7161 29.2854C29.7569 29.3863 29.7875 29.4973 29.8181 29.6083C29.8283 29.6386 29.8385 29.6689 29.8385 29.6991C29.9099 29.9716 29.9507 30.2643 29.9507 30.5569C29.9303 30.6276 29.9303 30.7083 29.9303 30.789ZM30.2669 33.8871C30.8688 33.0394 31.2769 32.1413 31.5217 31.3138C31.6951 30.7386 31.8379 30.1432 31.8889 29.5377C31.9093 29.3359 31.9093 29.134 31.9093 28.9322C31.9093 28.9423 31.9093 28.9524 31.9093 28.9625C31.9093 28.9524 31.9093 28.9423 31.9093 28.9322V28.9221V28.9322C31.8889 28.2763 31.7563 27.6405 31.5421 27.0451C31.5013 26.9442 31.4605 26.8433 31.4197 26.7423C31.3789 26.6515 31.3381 26.5506 31.2973 26.4598C31.2259 26.3084 31.1442 26.1671 31.0524 26.0259C31.0524 26.0259 31.0524 26.0259 31.0524 26.0158C30.7872 25.5919 30.471 25.1883 30.0935 24.8452C30.0833 24.8351 30.0629 24.8149 30.0425 24.8048C29.5529 24.3507 28.9816 23.9773 28.3389 23.6846C27.8391 23.4626 27.2984 23.2911 26.7169 23.1801C26.3395 23.1094 25.9518 23.0792 25.5438 23.0691C25.3806 23.0691 25.2275 23.0691 25.0745 23.0792C24.6155 23.0993 24.1972 23.1599 23.7382 23.2709C23.6668 22.9883 23.6056 22.7058 23.5341 22.4434C23.4015 21.9085 23.2893 21.4242 23.1873 20.9902C23.0139 20.2435 22.8915 19.6783 22.8303 19.416C22.8099 19.3352 22.7997 19.2848 22.7997 19.2646C22.7997 19.2545 22.7997 19.2444 22.7997 19.2444C22.7487 19.2848 22.6976 19.3251 22.6364 19.3655C22.2998 19.638 21.8407 20.082 21.4735 20.4554C21.4123 20.5159 21.3511 20.5765 21.3001 20.637C21.5245 21.3838 21.7387 22.2012 21.953 22.9984C22.0244 23.2608 22.0958 23.5232 22.1672 23.7755C21.3715 24.1287 20.6574 24.5929 20.0555 25.1378C19.8515 25.3195 19.6679 25.5112 19.4945 25.7029L19.4741 25.7231C19.27 25.9451 19.0864 26.1772 18.913 26.4194C18.8008 26.5809 18.6988 26.7524 18.5968 26.9139C18.3519 27.3377 18.1683 27.802 18.0459 28.2863C17.9031 28.8716 17.8521 29.4872 17.9235 30.1533C17.9337 30.2542 17.9439 30.3652 17.9643 30.4661C17.9949 30.6578 18.0357 30.8395 18.0969 31.0211C18.1989 31.3743 18.3417 31.7174 18.5254 32.0303C18.6376 32.222 18.76 32.4037 18.9028 32.5752C18.9742 32.666 19.0558 32.7569 19.1374 32.8477C19.3823 33.1101 19.6679 33.3523 19.9943 33.5642C19.8209 33.3623 19.6679 33.1504 19.5353 32.9284C19.3517 32.6257 19.2088 32.3027 19.1068 31.9697C19.066 31.8184 19.0252 31.667 18.9946 31.5156C18.9844 31.4349 18.9742 31.3441 18.964 31.2633C18.9538 31.112 18.9436 30.9707 18.9436 30.8193C18.9436 30.7991 18.9436 30.7789 18.9436 30.7688C19.0048 29.3258 19.9229 28.0744 21.3307 27.2671C21.7999 26.9946 22.3202 26.7827 22.8813 26.6213C23.2689 28.1753 23.5851 29.7395 23.8708 31.2835C23.8708 31.3037 23.881 31.3239 23.881 31.3441C23.881 31.3642 23.8912 31.3945 23.8912 31.4147C24.034 32.2119 24.1768 32.9991 24.2992 33.7862C24.4114 34.4926 24.5237 35.199 24.6257 35.8953C23.7178 36.0467 22.7895 36.1274 21.8407 36.1274C20.7492 36.1274 19.6883 36.0164 18.6478 35.8247C18.5968 35.7944 18.5458 35.7742 18.505 35.7439C18.2805 35.6127 18.0561 35.4815 17.8419 35.3302C16.9952 34.755 16.2709 34.0385 15.7098 33.2513C14.8121 31.9899 14.3327 30.5266 14.3837 29.1239C14.3837 29.1138 14.3837 29.1038 14.3837 29.0937C14.3939 28.9726 14.4041 28.8515 14.4143 28.7304C14.4143 28.7203 14.4143 28.7001 14.4143 28.69C14.4143 28.6698 14.4245 28.6395 14.4245 28.6194C14.4347 28.5285 14.4449 28.4478 14.4653 28.357C14.4653 28.3368 14.4755 28.3065 14.4755 28.2863C14.4755 28.2662 14.4857 28.2561 14.4857 28.2359C14.5061 28.135 14.5265 28.0442 14.5469 27.9432C14.5571 27.913 14.5571 27.8827 14.5673 27.8625C14.5979 27.7414 14.6285 27.6203 14.6693 27.4992C14.6795 27.4488 14.6999 27.3983 14.7101 27.3579C14.7305 27.2873 14.7611 27.2066 14.7815 27.1359C14.7917 27.1056 14.8019 27.0754 14.8121 27.0451C14.8223 27.0148 14.8325 26.9946 14.8427 26.9644C14.8631 26.8937 14.8937 26.8231 14.9243 26.7524C14.9447 26.6919 14.9651 26.6414 14.9957 26.5809C15.0365 26.4699 15.0875 26.3589 15.1386 26.258C15.1488 26.2378 15.1488 26.2277 15.159 26.2075C15.1794 26.157 15.21 26.0965 15.2406 26.046C15.261 25.9956 15.2916 25.9451 15.312 25.8947C15.3528 25.824 15.3834 25.7433 15.4242 25.6727C15.4446 25.6323 15.465 25.5919 15.4956 25.5516C15.5262 25.491 15.5568 25.4406 15.5874 25.38C15.7098 25.1681 15.8424 24.9562 15.9853 24.7543C15.9955 24.7342 16.0159 24.714 16.0261 24.6938C16.0873 24.6131 16.1383 24.5323 16.1995 24.4415C16.2199 24.4213 16.2403 24.391 16.2505 24.3709C16.2913 24.3204 16.3321 24.2599 16.3729 24.2094C16.3933 24.1791 16.4137 24.1488 16.4443 24.1287C16.6177 23.9067 16.8013 23.6846 16.985 23.4828C17.1992 23.2507 17.4236 23.0186 17.648 22.8067C18.2703 22.2416 18.9232 21.7168 19.5761 21.192C20.0147 20.8489 20.4534 20.5058 20.8818 20.1425C21.0961 19.9609 21.3103 19.7893 21.5143 19.5976C21.9326 19.2242 22.3406 18.8407 22.7282 18.427C23.1873 17.9224 23.5749 17.4582 23.9014 17.0243C24.1258 16.7316 24.3196 16.4491 24.4931 16.1867C24.6665 15.9142 24.8195 15.6619 24.9623 15.4096C25.3092 14.784 25.5438 14.2088 25.7376 13.6436C25.809 13.4216 25.8804 13.1996 25.9518 12.9776C26.013 12.7556 26.0742 12.5336 26.1354 12.3116C26.2375 11.918 26.3293 11.5244 26.3905 11.141C26.5027 10.4749 26.5639 9.74834 26.5639 9.00158C26.5639 8.93094 26.5639 8.8603 26.5639 8.78965C26.5639 8.72911 26.5639 8.65847 26.5537 8.59792V8.58783C26.5435 8.23462 26.5231 7.89152 26.4925 7.53832C26.4517 7.11447 26.3803 6.70072 26.2987 6.28698C26.2579 6.08515 26.2069 5.87323 26.1559 5.6714C26.1048 5.46957 26.0436 5.26774 25.9722 5.076C25.86 4.73289 25.7274 4.38978 25.554 4.04667C25.4826 3.90539 25.4112 3.7742 25.3398 3.64301C25.2377 3.46137 25.1255 3.27972 25.0133 3.10817C32.7968 4.58152 38.6829 11.3428 38.6829 19.4765C38.7033 25.6121 35.3063 31.0009 30.2669 33.8871Z" fill="#333333"/>
</svg>
